<svg version="1.1" viewBox="0.0 0.0 960.0262467191601 613.5774278215223" fill="none" stroke="none" stroke-linecap="square" stroke-miterlimit="10" xmlns:xlink="http://www.w3.org/1999/xlink" xmlns="http://www.w3.org/2000/svg"><clipPath id="p.0"><path d="m0 0l960.02625 0l0 613.57745l-960.02625 0l0 -613.57745z" clip-rule="nonzero"/></clipPath><g clip-path="url(#p.0)"><path fill="#000000" fill-opacity="0.0" d="m0 0l960.02625 0l0 613.57745l-960.02625 0z" fill-rule="evenodd"/><path fill="#cfe2f3" d="m366.07874 490.60892l15.795288 -15.795258l0 7.8976135l196.25195 0l0 -7.8976135l15.795288 15.795258l-15.795288 15.795288l0 -7.897644l-196.25195 0l0 7.897644z" fill-rule="evenodd"/><path stroke="#000000" stroke-width="1.0" stroke-linejoin="round" stroke-linecap="butt" d="m366.07874 490.60892l15.795288 -15.795258l0 7.8976135l196.25195 0l0 -7.8976135l15.795288 15.795258l-15.795288 15.795288l0 -7.897644l-196.25195 0l0 7.897644z" fill-rule="evenodd"/><path fill="#cfe2f3" d="m167.28084 159.10236l0 0c0 -46.913757 38.031128 -84.94488 84.944885 -84.94488l0 0c22.528793 0 44.134842 8.949524 60.06511 24.879784c15.930237 15.930252 24.87976 37.536316 24.87976 60.065094l0 0c0 46.913773 -38.031097 84.944885 -84.94487 84.944885l0 0c-46.913757 0 -84.944885 -38.031113 -84.944885 -84.944885z" fill-rule="evenodd"/><path stroke="#000000" stroke-width="1.0" stroke-linejoin="round" stroke-linecap="butt" d="m167.28084 159.10236l0 0c0 -46.913757 38.031128 -84.94488 84.944885 -84.94488l0 0c22.528793 0 44.134842 8.949524 60.06511 24.879784c15.930237 15.930252 24.87976 37.536316 24.87976 60.065094l0 0c0 46.913773 -38.031097 84.944885 -84.94487 84.944885l0 0c-46.913757 0 -84.944885 -38.031113 -84.944885 -84.944885z" fill-rule="evenodd"/><path fill="#cfe2f3" d="m622.8294 159.10236l0 0c0 -46.913757 38.031128 -84.94488 84.944885 -84.94488l0 0c22.528748 0 44.134827 8.949524 60.065063 24.879784c15.930298 15.930252 24.879822 37.536316 24.879822 60.065094l0 0c0 46.913773 -38.031128 84.944885 -84.944885 84.944885l0 0c-46.913757 0 -84.944885 -38.031113 -84.944885 -84.944885z" fill-rule="evenodd"/><path stroke="#000000" stroke-width="1.0" stroke-linejoin="round" stroke-linecap="butt" d="m622.8294 159.10236l0 0c0 -46.913757 38.031128 -84.94488 84.944885 -84.94488l0 0c22.528748 0 44.134827 8.949524 60.065063 24.879784c15.930298 15.930252 24.879822 37.536316 24.879822 60.065094l0 0c0 46.913773 -38.031128 84.944885 -84.944885 84.944885l0 0c-46.913757 0 -84.944885 -38.031113 -84.944885 -84.944885z" fill-rule="evenodd"/><path fill="#000000" fill-opacity="0.0" d="m232.00525 127.59055l40.44095 0l0 63.023613l-40.44095 0z" fill-rule="evenodd"/><path fill="#000000" d="m245.224 149.65054l5.796875 -2.828125l0.578125 0l0 20.125q0 2.0 0.171875 2.5q0.171875 0.484375 0.6875 0.75q0.53125 0.265625 2.15625 0.296875l0 0.65625l-8.96875 0l0 -0.65625q1.6875 -0.03125 2.171875 -0.28125q0.5 -0.265625 0.6875 -0.6875q0.203125 -0.4375 0.203125 -2.578125l0 -12.859375q0 -2.609375 -0.171875 -3.34375q-0.125 -0.5625 -0.453125 -0.828125q-0.328125 -0.265625 -0.78125 -0.265625q-0.65625 0 -1.8125 0.546875l-0.265625 -0.546875z" fill-rule="nonzero"/><path fill="#000000" fill-opacity="0.0" d="m687.55383 127.59055l40.440918 0l0 63.023613l-40.440918 0z" fill-rule="evenodd"/><path fill="#000000" d="m713.05383 166.5568l-1.65625 4.59375l-14.0625 0l0 -0.65625q6.203125 -5.65625 8.734375 -9.234375q2.53125 -3.59375 2.53125 -6.5625q0 -2.265625 -1.390625 -3.71875q-1.390625 -1.46875 -3.328125 -1.46875q-1.75 0 -3.15625 1.03125q-1.390625 1.03125 -2.0625 3.015625l-0.65625 0q0.453125 -3.25 2.265625 -4.984375q1.8125 -1.75 4.546875 -1.75q2.890625 0 4.828125 1.859375q1.953125 1.859375 1.953125 4.390625q0 1.8125 -0.84375 3.625q-1.296875 2.84375 -4.21875 6.03125q-4.375 4.78125 -5.46875 5.765625l6.21875 0q1.90625 0 2.671875 -0.140625q0.765625 -0.140625 1.375 -0.5625q0.625 -0.4375 1.078125 -1.234375l0.640625 0z" fill-rule="nonzero"/><path fill="#cfe2f3" d="m167.28084 490.60892l0 0c0 -46.913757 38.031128 -84.944885 84.944885 -84.944885l0 0c22.528793 0 44.134842 8.949524 60.06511 24.879791c15.930237 15.930267 24.87976 37.536316 24.87976 60.065094l0 0c0 46.913788 -38.031097 84.944916 -84.94487 84.944916l0 0c-46.913757 0 -84.944885 -38.031128 -84.944885 -84.944916z" fill-rule="evenodd"/><path stroke="#000000" stroke-width="1.0" stroke-linejoin="round" stroke-linecap="butt" d="m167.28084 490.60892l0 0c0 -46.913757 38.031128 -84.944885 84.944885 -84.944885l0 0c22.528793 0 44.134842 8.949524 60.06511 24.879791c15.930237 15.930267 24.87976 37.536316 24.87976 60.065094l0 0c0 46.913788 -38.031097 84.944916 -84.94487 84.944916l0 0c-46.913757 0 -84.944885 -38.031128 -84.944885 -84.944916z" fill-rule="evenodd"/><path fill="#cfe2f3" d="m622.8294 490.60892l0 0c0 -46.913757 38.031128 -84.944885 84.944885 -84.944885l0 0c22.528748 0 44.134827 8.949524 60.065063 24.879791c15.930298 15.930267 24.879822 37.536316 24.879822 60.065094l0 0c0 46.913788 -38.031128 84.944916 -84.944885 84.944916l0 0c-46.913757 0 -84.944885 -38.031128 -84.944885 -84.944916z" fill-rule="evenodd"/><path stroke="#000000" stroke-width="1.0" stroke-linejoin="round" stroke-linecap="butt" d="m622.8294 490.60892l0 0c0 -46.913757 38.031128 -84.944885 84.944885 -84.944885l0 0c22.528748 0 44.134827 8.949524 60.065063 24.879791c15.930298 15.930267 24.879822 37.536316 24.879822 60.065094l0 0c0 46.913788 -38.031128 84.944916 -84.944885 84.944916l0 0c-46.913757 0 -84.944885 -38.031128 -84.944885 -84.944916z" fill-rule="evenodd"/><path fill="#000000" fill-opacity="0.0" d="m232.00525 459.0971l40.44095 0l0 63.02362l-40.44095 0z" fill-rule="evenodd"/><path fill="#000000" d="m245.224 481.1571l5.796875 -2.828125l0.578125 0l0 20.125q0 2.0 0.171875 2.5q0.171875 0.484375 0.6875 0.75q0.53125 0.265625 2.15625 0.296875l0 0.65625l-8.96875 0l0 -0.65625q1.6875 -0.03125 2.171875 -0.28125q0.5 -0.265625 0.6875 -0.6875q0.203125 -0.4375 0.203125 -2.578125l0 -12.859375q0 -2.609375 -0.171875 -3.34375q-0.125 -0.5625 -0.453125 -0.828125q-0.328125 -0.265625 -0.78125 -0.265625q-0.65625 0 -1.8125 0.546875l-0.265625 -0.546875z" fill-rule="nonzero"/><path fill="#000000" fill-opacity="0.0" d="m687.55383 459.0971l40.440918 0l0 63.02362l-40.440918 0z" fill-rule="evenodd"/><path fill="#000000" d="m713.05383 498.06335l-1.65625 4.59375l-14.0625 0l0 -0.65625q6.203125 -5.65625 8.734375 -9.234375q2.53125 -3.59375 2.53125 -6.5625q0 -2.265625 -1.390625 -3.71875q-1.390625 -1.46875 -3.328125 -1.46875q-1.75 0 -3.15625 1.03125q-1.390625 1.03125 -2.0625 3.015625l-0.65625 0q0.453125 -3.25 2.265625 -4.984375q1.8125 -1.75 4.546875 -1.75q2.890625 0 4.828125 1.859375q1.953125 1.859375 1.953125 4.390625q0 1.8125 -0.84375 3.625q-1.296875 2.84375 -4.21875 6.03125q-4.375 4.78125 -5.46875 5.765625l6.21875 0q1.90625 0 2.671875 -0.140625q0.765625 -0.140625 1.375 -0.5625q0.625 -0.4375 1.078125 -1.234375l0.640625 0z" fill-rule="nonzero"/><path fill="#cfe2f3" d="m366.07874 159.10236l15.795288 -15.795273l0 7.897644l196.25195 0l0 -7.897644l15.795288 15.795273l-15.795288 15.795288l0 -7.897644l-196.25195 0l0 7.897644z" fill-rule="evenodd"/><path stroke="#000000" stroke-width="1.0" stroke-linejoin="round" stroke-linecap="butt" d="m366.07874 159.10236l15.795288 -15.795273l0 7.897644l196.25195 0l0 -7.897644l15.795288 15.795273l-15.795288 15.795288l0 -7.897644l-196.25195 0l0 7.897644z" fill-rule="evenodd"/><path fill="#000000" fill-opacity="0.0" d="m408.18896 108.18635l143.62207 0l0 42.015755l-143.62207 0z" fill-rule="evenodd"/><path fill="#000000" d="m422.98584 138.7626l0 0.328125q-1.375 -0.6875 -2.296875 -1.609375q-1.3125 -1.328125 -2.03125 -3.125q-0.703125 -1.796875 -0.703125 -3.71875q0 -2.8281326 1.390625 -5.1562576q1.390625 -2.328125 3.640625 -3.328125l0 0.375q-1.125 0.625 -1.84375 1.703125q-0.71875 1.078125 -1.078125 2.734375q-0.359375 1.6406326 -0.359375 3.4375076q0 1.9375 0.3125 3.53125q0.234375 1.265625 0.5625 2.015625q0.34375 0.765625 0.90625 1.46875q0.578125 0.703125 1.5 1.34375zm9.322052 -15.671883l0 -0.34375l4.359375 0l0 0.34375l-0.453125 0q-0.734375 0 -1.125 0.609375q-0.1875 0.28125 -0.1875 1.3125l0 5.0156326q0 1.859375 -0.375 2.890625q-0.359375 1.015625 -1.453125 1.75q-1.078125 0.734375 -2.9375 0.734375q-2.015625 0 -3.0625 -0.703125q-1.046875 -0.703125 -1.484375 -1.890625q-0.296875 -0.8125 -0.296875 -3.046875l0 -4.8281326q0 -1.140625 -0.3125 -1.484375q-0.3125 -0.359375 -1.015625 -0.359375l-0.46875 0l0 -0.34375l5.34375 0l0 0.34375l-0.46875 0q-0.765625 0 -1.09375 0.484375q-0.234375 0.328125 -0.234375 1.359375l0 5.3906326q0 0.71875 0.125 1.65625q0.140625 0.921875 0.484375 1.4375q0.34375 0.515625 1.0 0.859375q0.65625 0.34375 1.59375 0.34375q1.21875 0 2.171875 -0.53125q0.953125 -0.53125 1.296875 -1.359375q0.359375 -0.828125 0.359375 -2.796875l0 -5.0000076q0 -1.15625 -0.25 -1.4375q-0.359375 -0.40625 -1.0625 -0.40625l-0.453125 0zm7.5823364 5.1875076q1.46875 -1.7656326 2.796875 -1.7656326q0.6875 0 1.171875 0.34375q0.5 0.34375 0.78125 1.125q0.203125 0.5468826 0.203125 1.6718826l0 3.5625q0 0.796875 0.125 1.078125q0.109375 0.234375 0.328125 0.359375q0.21875 0.125 0.828125 0.125l0 0.328125l-4.125 0l0 -0.328125l0.171875 0q0.578125 0 0.8125 -0.171875q0.234375 -0.1875 0.328125 -0.53125q0.03125 -0.140625 0.03125 -0.859375l0 -3.40625q0 -1.140625 -0.296875 -1.65625q-0.296875 -0.5156326 -1.0 -0.5156326q-1.078125 0 -2.15625 1.1875076l0 4.390625q0 0.859375 0.09375 1.046875q0.140625 0.265625 0.359375 0.390625q0.21875 0.125 0.90625 0.125l0 0.328125l-4.125 0l0 -0.328125l0.171875 0q0.640625 0 0.859375 -0.3125q0.234375 -0.328125 0.234375 -1.25l0 -3.09375q0 -1.5 -0.078125 -1.828125q-0.0625 -0.32813263 -0.203125 -0.43750763q-0.140625 -0.125 -0.375 -0.125q-0.265625 0 -0.609375 0.140625l-0.140625 -0.328125l2.515625 -1.03125l0.390625 0l0 1.7656326zm6.4375 -1.5156326l3.484375 0l0 0.34375q-0.46875 0.03125 -0.625 0.171875q-0.15625 0.125 -0.15625 0.390625q0 0.28125 0.15625 0.6718826l1.78125 4.8125l1.796875 -3.90625l-0.46875 -1.234375q-0.21875 -0.5468826 -0.578125 -0.7656326q-0.203125 -0.125 -0.75 -0.140625l0 -0.34375l3.984375 0l0 0.34375q-0.65625 0.015625 -0.9375 0.234375q-0.171875 0.140625 -0.171875 0.453125q0 0.1875 0.0625 0.37500763l1.890625 4.796875l1.765625 -4.625q0.1875 -0.48438263 0.1875 -0.7812576q0 -0.171875 -0.1875 -0.296875q-0.171875 -0.140625 -0.6875 -0.15625l0 -0.34375l2.625 0l0 0.34375q-0.796875 0.109375 -1.15625 1.0625076l-2.796875 7.1875l-0.375 0l-2.078125 -5.328125l-2.4375 5.328125l-0.328125 0l-2.6875 -7.015625q-0.265625 -0.6562576 -0.515625 -0.8906326q-0.25 -0.234375 -0.796875 -0.34375l0 -0.34375zm15.332306 3.1406326q0 1.859375 0.90625 2.921875q0.90625 1.046875 2.140625 1.046875q0.8125 0 1.421875 -0.4375q0.609375 -0.453125 1.015625 -1.546875l0.28125 0.171875q-0.1875 1.25 -1.109375 2.28125q-0.921875 1.015625 -2.296875 1.015625q-1.515625 0 -2.59375 -1.171875q-1.0625 -1.171875 -1.0625 -3.140625q0 -2.140625 1.09375 -3.3281326q1.109375 -1.203125 2.765625 -1.203125q1.40625 0 2.296875 0.921875q0.90625 0.9218826 0.90625 2.4687576l-5.765625 0zm0 -0.53125l3.859375 0q-0.046875 -0.796875 -0.1875 -1.125q-0.234375 -0.5156326 -0.6875 -0.7968826q-0.4375 -0.296875 -0.9375 -0.296875q-0.75 0 -1.34375 0.59375q-0.59375 0.5781326 -0.703125 1.6250076zm8.999298 -7.2187576q0.390625 0 0.65625 0.265625q0.265625 0.265625 0.265625 0.65625q0 0.375 -0.265625 0.65625q-0.265625 0.265625 -0.65625 0.265625q-0.375 0 -0.65625 -0.265625q-0.265625 -0.28125 -0.265625 -0.65625q0 -0.390625 0.265625 -0.65625q0.265625 -0.265625 0.65625 -0.265625zm0.765625 4.359375l0 6.7031326q0 0.78125 0.109375 1.046875q0.109375 0.265625 0.328125 0.390625q0.234375 0.125 0.828125 0.125l0 0.328125l-4.0625 0l0 -0.328125q0.609375 0 0.8125 -0.109375q0.21875 -0.125 0.34375 -0.390625q0.125 -0.28125 0.125 -1.0625l0 -3.203125q0 -1.359375 -0.078125 -1.765625q-0.078125 -0.29688263 -0.21875 -0.40625763q-0.125 -0.109375 -0.359375 -0.109375q-0.265625 0 -0.625 0.140625l-0.125 -0.328125l2.515625 -1.03125l0.40625 0zm4.5270386 5.5468826q-0.765625 -0.375 -1.171875 -1.03125q-0.40625 -0.671875 -0.40625 -1.484375q0 -1.25 0.921875 -2.1406326q0.9375 -0.890625 2.40625 -0.890625q1.1875 0 2.0625 0.59375l1.765625 0q0.390625 0 0.453125 0.015625q0.0625 0.015625 0.09375 0.078125q0.046875 0.078125 0.046875 0.296875q0 0.234375 -0.03125 0.328125q-0.03125 0.046875 -0.109375 0.078125q-0.0625 0.015625 -0.453125 0.015625l-1.078125 0q0.5 0.6562576 0.5 1.6718826q0 1.171875 -0.890625 2.0q-0.890625 0.828125 -2.390625 0.828125q-0.625 0 -1.265625 -0.1875q-0.40625 0.359375 -0.546875 0.625q-0.140625 0.25 -0.140625 0.421875q0 0.15625 0.140625 0.3125q0.15625 0.140625 0.59375 0.203125q0.265625 0.03125 1.28125 0.0625q1.875 0.046875 2.421875 0.125q0.859375 0.125 1.359375 0.640625q0.5 0.5 0.5 1.25q0 1.03125 -0.953125 1.9375q-1.421875 1.328125 -3.71875 1.328125q-1.75 0 -2.96875 -0.796875q-0.671875 -0.453125 -0.671875 -0.953125q0 -0.21875 0.09375 -0.4375q0.15625 -0.328125 0.640625 -0.9375q0.0625 -0.078125 0.921875 -0.984375q-0.46875 -0.28125 -0.671875 -0.5q-0.1875 -0.21875 -0.1875 -0.5q0 -0.328125 0.25 -0.75q0.265625 -0.4375 1.203125 -1.21875zm1.59375 -5.1093826q-0.6875 0 -1.140625 0.546875q-0.453125 0.5312576 -0.453125 1.6406326q0 1.4375 0.625 2.234375q0.46875 0.59375 1.203125 0.59375q0.6875 0 1.125 -0.515625q0.453125 -0.515625 0.453125 -1.625q0 -1.453125 -0.625 -2.2656326q-0.46875 -0.609375 -1.1875 -0.609375zm-1.6875 8.156258q-0.421875 0.46875 -0.640625 0.859375q-0.21875 0.40625 -0.21875 0.75q0 0.4375 0.53125 0.765625q0.90625 0.5625 2.625 0.5625q1.640625 0 2.421875 -0.578125q0.78125 -0.578125 0.78125 -1.234375q0 -0.484375 -0.46875 -0.671875q-0.46875 -0.203125 -1.875 -0.25q-2.046875 -0.046875 -3.15625 -0.203125zm9.640625 -12.953133l0 6.1093826q1.015625 -1.1250076 1.609375 -1.4375076q0.59375 -0.3125 1.1875 -0.3125q0.703125 0 1.203125 0.390625q0.515625 0.390625 0.765625 1.2343826q0.171875 0.578125 0.171875 2.125l0 2.953125q0 0.796875 0.125 1.09375q0.09375 0.21875 0.3125 0.34375q0.21875 0.125 0.796875 0.125l0 0.328125l-4.09375 0l0 -0.328125l0.1875 0q0.59375 0 0.8125 -0.171875q0.234375 -0.1875 0.328125 -0.53125q0.015625 -0.140625 0.015625 -0.859375l0 -2.953125q0 -1.359375 -0.140625 -1.78125q-0.140625 -0.4375 -0.453125 -0.6406326q-0.296875 -0.21875 -0.734375 -0.21875q-0.453125 0 -0.9375 0.234375q-0.484375 0.23438263 -1.15625 0.9531326l0 4.40625q0 0.859375 0.09375 1.078125q0.09375 0.203125 0.359375 0.34375q0.265625 0.140625 0.890625 0.140625l0 0.328125l-4.125 0l0 -0.328125q0.546875 0 0.875 -0.171875q0.171875 -0.09375 0.28125 -0.34375q0.109375 -0.265625 0.109375 -1.046875l0 -7.5468826q0 -1.4375 -0.0625 -1.765625q-0.0625 -0.328125 -0.203125 -0.4375q-0.140625 -0.125 -0.390625 -0.125q-0.1875 0 -0.609375 0.15625l-0.125 -0.328125l2.484375 -1.015625l0.421875 0zm9.296875 1.859375l0 2.75l1.953125 0l0 0.640625l-1.953125 0l0 5.4062576q0 0.8125 0.234375 1.09375q0.234375 0.28125 0.59375 0.28125q0.3125 0 0.59375 -0.1875q0.28125 -0.1875 0.4375 -0.546875l0.34375 0q-0.3125 0.890625 -0.90625 1.34375q-0.578125 0.453125 -1.1875 0.453125q-0.421875 0 -0.828125 -0.234375q-0.390625 -0.234375 -0.59375 -0.65625q-0.1875 -0.4375 -0.1875 -1.34375l0 -5.6093826l-1.3125 0l0 -0.296875q0.5 -0.203125 1.015625 -0.6875q0.53125 -0.484375 0.9375 -1.125q0.203125 -0.359375 0.578125 -1.28125l0.28125 0zm4.167694 5.8906326q0 1.859375 0.90625 2.921875q0.90625 1.046875 2.140625 1.046875q0.8125 0 1.421875 -0.4375q0.609375 -0.453125 1.015625 -1.546875l0.28125 0.171875q-0.1875 1.25 -1.109375 2.28125q-0.921875 1.015625 -2.296875 1.015625q-1.515625 0 -2.59375 -1.171875q-1.0625 -1.171875 -1.0625 -3.140625q0 -2.140625 1.09375 -3.3281326q1.109375 -1.203125 2.765625 -1.203125q1.40625 0 2.296875 0.921875q0.90625 0.9218826 0.90625 2.4687576l-5.765625 0zm0 -0.53125l3.859375 0q-0.046875 -0.796875 -0.1875 -1.125q-0.234375 -0.5156326 -0.6875 -0.7968826q-0.4375 -0.296875 -0.9375 -0.296875q-0.75 0 -1.34375 0.59375q-0.59375 0.5781326 -0.703125 1.6250076zm12.780518 4.796875q-0.625 0.640625 -1.203125 0.921875q-0.578125 0.265625 -1.25 0.265625q-1.375 0 -2.390625 -1.140625q-1.015625 -1.140625 -1.015625 -2.9375q0 -1.796875 1.125 -3.2812576q1.125 -1.484375 2.90625 -1.484375q1.09375 0 1.828125 0.703125l0 -1.546875q0 -1.4375 -0.078125 -1.765625q-0.0625 -0.328125 -0.21875 -0.4375q-0.140625 -0.125 -0.359375 -0.125q-0.234375 0 -0.625 0.15625l-0.125 -0.328125l2.484375 -1.015625l0.421875 0l0 9.640633q0 1.46875 0.0625 1.796875q0.0625 0.328125 0.21875 0.453125q0.15625 0.125 0.359375 0.125q0.234375 0 0.65625 -0.15625l0.09375 0.3125l-2.484375 1.03125l-0.40625 0l0 -1.1875zm0 -0.640625l0 -4.296875q-0.0625 -0.625 -0.34375 -1.125q-0.265625 -0.5156326 -0.71875 -0.7656326q-0.453125 -0.265625 -0.875 -0.265625q-0.796875 0 -1.4375 0.71875q-0.828125 0.9375076 -0.828125 2.7656326q0 1.84375 0.796875 2.828125q0.8125 0.96875 1.796875 0.96875q0.828125 0 1.609375 -0.828125zm3.265625 -11.000008l0 -0.375q1.375 0.6875 2.296875 1.609375q1.3125 1.328125 2.015625 3.125q0.71875 1.7812576 0.71875 3.7343826q0 2.8125 -1.390625 5.140625q-1.390625 2.328125 -3.640625 3.328125l0 -0.328125q1.125 -0.625 1.84375 -1.703125q0.71875 -1.0625 1.0625 -2.71875q0.359375 -1.65625 0.359375 -3.453125q0 -1.9375 -0.296875 -3.5468826q-0.234375 -1.25 -0.578125 -2.0q-0.328125 -0.765625 -0.90625 -1.46875q-0.5625 -0.703125 -1.484375 -1.34375z" fill-rule="nonzero"/><path fill="#000000" fill-opacity="0.0" d="m408.18896 432.7979l143.62207 0l0 42.015747l-143.62207 0z" fill-rule="evenodd"/><path fill="#000000" d="m434.6577 447.35852l0 0.34375q-0.484375 0 -0.796875 0.171875q-0.296875 0.171875 -0.5625 0.640625q-0.1875 0.328125 -0.578125 1.53125l-3.4375 9.953125l-0.375 0l-2.8125 -7.890625l-2.796875 7.890625l-0.328125 0l-3.671875 -10.25q-0.40625 -1.15625 -0.515625 -1.359375q-0.1875 -0.34375 -0.5 -0.515625q-0.3125 -0.171875 -0.84375 -0.171875l0 -0.34375l4.5625 0l0 0.34375l-0.21875 0q-0.46875 0 -0.734375 0.21875q-0.25 0.21875 -0.25 0.53125q0 0.3125 0.40625 1.46875l2.421875 6.921875l2.046875 -5.890625l-0.359375 -1.03125l-0.296875 -0.828125q-0.1875 -0.46875 -0.421875 -0.8125q-0.125 -0.171875 -0.296875 -0.28125q-0.21875 -0.171875 -0.453125 -0.234375q-0.171875 -0.0625 -0.546875 -0.0625l0 -0.34375l4.8125 0l0 0.34375l-0.328125 0q-0.515625 0 -0.75 0.21875q-0.234375 0.21875 -0.234375 0.59375q0 0.46875 0.40625 1.625l2.375 6.703125l2.34375 -6.796875q0.40625 -1.125 0.40625 -1.5625q0 -0.21875 -0.140625 -0.390625q-0.125 -0.1875 -0.328125 -0.265625q-0.34375 -0.125 -0.890625 -0.125l0 -0.34375l3.6875 0zm0.6294861 7.15625q0 1.859375 0.90625 2.921875q0.90625 1.046875 2.140625 1.046875q0.8125 0 1.421875 -0.4375q0.609375 -0.453125 1.015625 -1.546875l0.28125 0.171875q-0.1875 1.25 -1.109375 2.28125q-0.921875 1.015625 -2.296875 1.015625q-1.515625 0 -2.59375 -1.171875q-1.0625 -1.171875 -1.0625 -3.140625q0 -2.140625 1.09375 -3.328125q1.109375 -1.203125 2.765625 -1.203125q1.40625 0 2.296875 0.921875q0.90625 0.921875 0.90625 2.46875l-5.765625 0zm0 -0.53125l3.859375 0q-0.046875 -0.796875 -0.1875 -1.125q-0.234375 -0.515625 -0.6875 -0.796875q-0.4375 -0.296875 -0.9375 -0.296875q-0.75 0 -1.34375 0.59375q-0.59375 0.578125 -0.703125 1.625zm8.999298 -7.21875q0.390625 0 0.65625 0.265625q0.265625 0.265625 0.265625 0.65625q0 0.375 -0.265625 0.65625q-0.265625 0.265625 -0.65625 0.265625q-0.375 0 -0.65625 -0.265625q-0.265625 -0.28125 -0.265625 -0.65625q0 -0.390625 0.265625 -0.65625q0.265625 -0.265625 0.65625 -0.265625zm0.765625 4.359375l0 6.703125q0 0.78125 0.109375 1.046875q0.109375 0.265625 0.328125 0.390625q0.234375 0.125 0.828125 0.125l0 0.328125l-4.0625 0l0 -0.328125q0.609375 0 0.8125 -0.109375q0.21875 -0.125 0.34375 -0.390625q0.125 -0.28125 0.125 -1.0625l0 -3.203125q0 -1.359375 -0.078125 -1.765625q-0.078125 -0.296875 -0.21875 -0.40625q-0.125 -0.109375 -0.359375 -0.109375q-0.265625 0 -0.625 0.140625l-0.125 -0.328125l2.515625 -1.03125l0.40625 0zm4.5270386 5.546875q-0.765625 -0.375 -1.171875 -1.03125q-0.40625 -0.671875 -0.40625 -1.484375q0 -1.25 0.921875 -2.140625q0.9375 -0.890625 2.40625 -0.890625q1.1875 0 2.0625 0.59375l1.765625 0q0.390625 0 0.453125 0.015625q0.0625 0.015625 0.09375 0.078125q0.046875 0.078125 0.046875 0.296875q0 0.234375 -0.03125 0.328125q-0.03125 0.046875 -0.109375 0.078125q-0.0625 0.015625 -0.453125 0.015625l-1.078125 0q0.5 0.65625 0.5 1.671875q0 1.171875 -0.890625 2.0q-0.890625 0.828125 -2.390625 0.828125q-0.625 0 -1.265625 -0.1875q-0.40625 0.359375 -0.546875 0.625q-0.140625 0.25 -0.140625 0.421875q0 0.15625 0.140625 0.3125q0.15625 0.140625 0.59375 0.203125q0.265625 0.03125 1.28125 0.0625q1.875 0.046875 2.421875 0.125q0.859375 0.125 1.359375 0.640625q0.5 0.5 0.5 1.25q0 1.03125 -0.953125 1.9375q-1.421875 1.328125 -3.71875 1.328125q-1.75 0 -2.96875 -0.796875q-0.671875 -0.453125 -0.671875 -0.953125q0 -0.21875 0.09375 -0.4375q0.15625 -0.328125 0.640625 -0.9375q0.0625 -0.078125 0.921875 -0.984375q-0.46875 -0.28125 -0.671875 -0.5q-0.1875 -0.21875 -0.1875 -0.5q0 -0.328125 0.25 -0.75q0.265625 -0.4375 1.203125 -1.21875zm1.59375 -5.109375q-0.6875 0 -1.140625 0.546875q-0.453125 0.53125 -0.453125 1.640625q0 1.4375 0.625 2.234375q0.46875 0.59375 1.203125 0.59375q0.6875 0 1.125 -0.515625q0.453125 -0.515625 0.453125 -1.625q0 -1.453125 -0.625 -2.265625q-0.46875 -0.609375 -1.1875 -0.609375zm-1.6875 8.15625q-0.421875 0.46875 -0.640625 0.859375q-0.21875 0.40625 -0.21875 0.75q0 0.4375 0.53125 0.765625q0.90625 0.5625 2.625 0.5625q1.640625 0 2.421875 -0.578125q0.78125 -0.578125 0.78125 -1.234375q0 -0.484375 -0.46875 -0.671875q-0.46875 -0.203125 -1.875 -0.25q-2.046875 -0.046875 -3.15625 -0.203125zm9.640625 -12.953125l0 6.109375q1.015625 -1.125 1.609375 -1.4375q0.59375 -0.3125 1.1875 -0.3125q0.703125 0 1.203125 0.390625q0.515625 0.390625 0.765625 1.234375q0.171875 0.578125 0.171875 2.125l0 2.953125q0 0.796875 0.125 1.09375q0.09375 0.21875 0.3125 0.34375q0.21875 0.125 0.796875 0.125l0 0.328125l-4.09375 0l0 -0.328125l0.1875 0q0.59375 0 0.8125 -0.171875q0.234375 -0.1875 0.328125 -0.53125q0.015625 -0.140625 0.015625 -0.859375l0 -2.953125q0 -1.359375 -0.140625 -1.78125q-0.140625 -0.4375 -0.453125 -0.640625q-0.296875 -0.21875 -0.734375 -0.21875q-0.453125 0 -0.9375 0.234375q-0.484375 0.234375 -1.15625 0.953125l0 4.40625q0 0.859375 0.09375 1.078125q0.09375 0.203125 0.359375 0.34375q0.265625 0.140625 0.890625 0.140625l0 0.328125l-4.125 0l0 -0.328125q0.546875 0 0.875 -0.171875q0.171875 -0.09375 0.28125 -0.34375q0.109375 -0.265625 0.109375 -1.046875l0 -7.546875q0 -1.4375 -0.0625 -1.765625q-0.0625 -0.328125 -0.203125 -0.4375q-0.140625 -0.125 -0.390625 -0.125q-0.1875 0 -0.609375 0.15625l-0.125 -0.328125l2.484375 -1.015625l0.421875 0zm9.296875 1.859375l0 2.75l1.953125 0l0 0.640625l-1.953125 0l0 5.40625q0 0.8125 0.234375 1.09375q0.234375 0.28125 0.59375 0.28125q0.3125 0 0.59375 -0.1875q0.28125 -0.1875 0.4375 -0.546875l0.34375 0q-0.3125 0.890625 -0.90625 1.34375q-0.578125 0.453125 -1.1875 0.453125q-0.421875 0 -0.828125 -0.234375q-0.390625 -0.234375 -0.59375 -0.65625q-0.1875 -0.4375 -0.1875 -1.34375l0 -5.609375l-1.3125 0l0 -0.296875q0.5 -0.203125 1.015625 -0.6875q0.53125 -0.484375 0.9375 -1.125q0.203125 -0.359375 0.578125 -1.28125l0.28125 0zm4.808319 2.5q0.421875 0 0.71875 0.296875q0.296875 0.296875 0.296875 0.703125q0 0.421875 -0.296875 0.71875q-0.296875 0.296875 -0.71875 0.296875q-0.40625 0 -0.703125 -0.296875q-0.296875 -0.296875 -0.296875 -0.71875q0 -0.40625 0.296875 -0.703125q0.296875 -0.296875 0.703125 -0.296875zm-0.015625 6.8125q0.4375 0 0.734375 0.3125q0.296875 0.296875 0.296875 0.71875q0 0.40625 -0.3125 0.703125q-0.296875 0.296875 -0.71875 0.296875q-0.40625 0 -0.703125 -0.296875q-0.296875 -0.296875 -0.296875 -0.703125q0 -0.421875 0.296875 -0.71875q0.296875 -0.3125 0.703125 -0.3125zm9.425476 -9.359375l3.0 -1.46875l0.3125 0l0 10.4375q0 1.03125 0.078125 1.296875q0.09375 0.25 0.359375 0.390625q0.28125 0.125 1.109375 0.140625l0 0.34375l-4.640625 0l0 -0.34375q0.875 -0.015625 1.125 -0.140625q0.265625 -0.140625 0.359375 -0.359375q0.09375 -0.21875 0.09375 -1.328125l0 -6.671875q0 -1.34375 -0.078125 -1.734375q-0.078125 -0.296875 -0.25 -0.421875q-0.15625 -0.140625 -0.390625 -0.140625q-0.34375 0 -0.9375 0.28125l-0.140625 -0.28125zm7.8125 5.03125q0 -2.109375 0.640625 -3.625q0.640625 -1.53125 1.6875 -2.28125q0.828125 -0.59375 1.703125 -0.59375q1.421875 0 2.546875 1.453125q1.40625 1.796875 1.40625 4.859375q0 2.15625 -0.625 3.65625q-0.609375 1.5 -1.578125 2.1875q-0.953125 0.671875 -1.84375 0.671875q-1.765625 0 -2.9375 -2.09375q-1.0 -1.75 -1.0 -4.234375zm1.78125 0.234375q0 2.546875 0.640625 4.15625q0.515625 1.359375 1.546875 1.359375q0.484375 0 1.015625 -0.4375q0.53125 -0.4375 0.796875 -1.484375q0.421875 -1.5625 0.421875 -4.421875q0 -2.109375 -0.4375 -3.515625q-0.328125 -1.046875 -0.84375 -1.484375q-0.375 -0.296875 -0.90625 -0.296875q-0.609375 0 -1.09375 0.546875q-0.65625 0.765625 -0.90625 2.390625q-0.234375 1.609375 -0.234375 3.1875z" fill-rule="nonzero"/></g></svg>