<svg version="1.1" viewBox="0.0 0.0 941.1496062992126 624.3622047244095" fill="none" stroke="none" stroke-linecap="square" stroke-miterlimit="10" xmlns:xlink="http://www.w3.org/1999/xlink" xmlns="http://www.w3.org/2000/svg"><clipPath id="p.0"><path d="m0 0l941.1496 0l0 624.3622l-941.1496 0l0 -624.3622z" clip-rule="nonzero"/></clipPath><g clip-path="url(#p.0)"><path fill="#000000" fill-opacity="0.0" d="m0 0l941.1496 0l0 624.3622l-941.1496 0z" fill-rule="evenodd"/><path fill="#cfe2f3" d="m167.28084 159.10236l0 0c0 -46.913757 38.031128 -84.94488 84.944885 -84.94488l0 0c22.528793 0 44.134842 8.949524 60.06511 24.879784c15.930237 15.930252 24.87976 37.536316 24.87976 60.065094l0 0c0 46.913773 -38.031097 84.944885 -84.94487 84.944885l0 0c-46.913757 0 -84.944885 -38.031113 -84.944885 -84.944885z" fill-rule="evenodd"/><path stroke="#000000" stroke-width="1.0" stroke-linejoin="round" stroke-linecap="butt" d="m167.28084 159.10236l0 0c0 -46.913757 38.031128 -84.94488 84.944885 -84.94488l0 0c22.528793 0 44.134842 8.949524 60.06511 24.879784c15.930237 15.930252 24.87976 37.536316 24.87976 60.065094l0 0c0 46.913773 -38.031097 84.944885 -84.94487 84.944885l0 0c-46.913757 0 -84.944885 -38.031113 -84.944885 -84.944885z" fill-rule="evenodd"/><path fill="#cfe2f3" d="m622.8294 159.10236l0 0c0 -46.913757 38.031128 -84.94488 84.944885 -84.94488l0 0c22.528748 0 44.134827 8.949524 60.065063 24.879784c15.930298 15.930252 24.879822 37.536316 24.879822 60.065094l0 0c0 46.913773 -38.031128 84.944885 -84.944885 84.944885l0 0c-46.913757 0 -84.944885 -38.031113 -84.944885 -84.944885z" fill-rule="evenodd"/><path stroke="#000000" stroke-width="1.0" stroke-linejoin="round" stroke-linecap="butt" d="m622.8294 159.10236l0 0c0 -46.913757 38.031128 -84.94488 84.944885 -84.94488l0 0c22.528748 0 44.134827 8.949524 60.065063 24.879784c15.930298 15.930252 24.879822 37.536316 24.879822 60.065094l0 0c0 46.913773 -38.031128 84.944885 -84.944885 84.944885l0 0c-46.913757 0 -84.944885 -38.031113 -84.944885 -84.944885z" fill-rule="evenodd"/><path fill="#000000" fill-opacity="0.0" d="m232.00525 127.59055l40.44095 0l0 63.023613l-40.44095 0z" fill-rule="evenodd"/><path fill="#000000" d="m245.224 149.65054l5.796875 -2.828125l0.578125 0l0 20.125q0 2.0 0.171875 2.5q0.171875 0.484375 0.6875 0.75q0.53125 0.265625 2.15625 0.296875l0 0.65625l-8.96875 0l0 -0.65625q1.6875 -0.03125 2.171875 -0.28125q0.5 -0.265625 0.6875 -0.6875q0.203125 -0.4375 0.203125 -2.578125l0 -12.859375q0 -2.609375 -0.171875 -3.34375q-0.125 -0.5625 -0.453125 -0.828125q-0.328125 -0.265625 -0.78125 -0.265625q-0.65625 0 -1.8125 0.546875l-0.265625 -0.546875z" fill-rule="nonzero"/><path fill="#000000" fill-opacity="0.0" d="m687.55383 127.59055l40.440918 0l0 63.023613l-40.440918 0z" fill-rule="evenodd"/><path fill="#000000" d="m713.05383 166.5568l-1.65625 4.59375l-14.0625 0l0 -0.65625q6.203125 -5.65625 8.734375 -9.234375q2.53125 -3.59375 2.53125 -6.5625q0 -2.265625 -1.390625 -3.71875q-1.390625 -1.46875 -3.328125 -1.46875q-1.75 0 -3.15625 1.03125q-1.390625 1.03125 -2.0625 3.015625l-0.65625 0q0.453125 -3.25 2.265625 -4.984375q1.8125 -1.75 4.546875 -1.75q2.890625 0 4.828125 1.859375q1.953125 1.859375 1.953125 4.390625q0 1.8125 -0.84375 3.625q-1.296875 2.84375 -4.21875 6.03125q-4.375 4.78125 -5.46875 5.765625l6.21875 0q1.90625 0 2.671875 -0.140625q0.765625 -0.140625 1.375 -0.5625q0.625 -0.4375 1.078125 -1.234375l0.640625 0z" fill-rule="nonzero"/><path fill="#cfe2f3" d="m167.28084 490.60892l0 0c0 -46.913757 38.031128 -84.944885 84.944885 -84.944885l0 0c22.528793 0 44.134842 8.949524 60.06511 24.879791c15.930237 15.930267 24.87976 37.536316 24.87976 60.065094l0 0c0 46.913788 -38.031097 84.944916 -84.94487 84.944916l0 0c-46.913757 0 -84.944885 -38.031128 -84.944885 -84.944916z" fill-rule="evenodd"/><path stroke="#000000" stroke-width="1.0" stroke-linejoin="round" stroke-linecap="butt" d="m167.28084 490.60892l0 0c0 -46.913757 38.031128 -84.944885 84.944885 -84.944885l0 0c22.528793 0 44.134842 8.949524 60.06511 24.879791c15.930237 15.930267 24.87976 37.536316 24.87976 60.065094l0 0c0 46.913788 -38.031097 84.944916 -84.94487 84.944916l0 0c-46.913757 0 -84.944885 -38.031128 -84.944885 -84.944916z" fill-rule="evenodd"/><path fill="#cfe2f3" d="m622.8294 490.60892l0 0c0 -46.913757 38.031128 -84.944885 84.944885 -84.944885l0 0c22.528748 0 44.134827 8.949524 60.065063 24.879791c15.930298 15.930267 24.879822 37.536316 24.879822 60.065094l0 0c0 46.913788 -38.031128 84.944916 -84.944885 84.944916l0 0c-46.913757 0 -84.944885 -38.031128 -84.944885 -84.944916z" fill-rule="evenodd"/><path stroke="#000000" stroke-width="1.0" stroke-linejoin="round" stroke-linecap="butt" d="m622.8294 490.60892l0 0c0 -46.913757 38.031128 -84.944885 84.944885 -84.944885l0 0c22.528748 0 44.134827 8.949524 60.065063 24.879791c15.930298 15.930267 24.879822 37.536316 24.879822 60.065094l0 0c0 46.913788 -38.031128 84.944916 -84.944885 84.944916l0 0c-46.913757 0 -84.944885 -38.031128 -84.944885 -84.944916z" fill-rule="evenodd"/><path fill="#cfe2f3" d="m593.92126 490.60892l-15.795288 -15.795258l0 7.8976135l-212.04724 0l0 15.795288l212.04724 0l0 7.897644z" fill-rule="evenodd"/><path stroke="#000000" stroke-width="1.0" stroke-linejoin="round" stroke-linecap="butt" d="m593.92126 490.60892l-15.795288 -15.795258l0 7.8976135l-212.04724 0l0 15.795288l212.04724 0l0 7.897644z" fill-rule="evenodd"/><path fill="#000000" fill-opacity="0.0" d="m232.00525 459.0971l40.44095 0l0 63.02362l-40.44095 0z" fill-rule="evenodd"/><path fill="#000000" d="m245.224 481.1571l5.796875 -2.828125l0.578125 0l0 20.125q0 2.0 0.171875 2.5q0.171875 0.484375 0.6875 0.75q0.53125 0.265625 2.15625 0.296875l0 0.65625l-8.96875 0l0 -0.65625q1.6875 -0.03125 2.171875 -0.28125q0.5 -0.265625 0.6875 -0.6875q0.203125 -0.4375 0.203125 -2.578125l0 -12.859375q0 -2.609375 -0.171875 -3.34375q-0.125 -0.5625 -0.453125 -0.828125q-0.328125 -0.265625 -0.78125 -0.265625q-0.65625 0 -1.8125 0.546875l-0.265625 -0.546875z" fill-rule="nonzero"/><path fill="#000000" fill-opacity="0.0" d="m687.55383 459.0971l40.440918 0l0 63.02362l-40.440918 0z" fill-rule="evenodd"/><path fill="#000000" d="m713.05383 498.06335l-1.65625 4.59375l-14.0625 0l0 -0.65625q6.203125 -5.65625 8.734375 -9.234375q2.53125 -3.59375 2.53125 -6.5625q0 -2.265625 -1.390625 -3.71875q-1.390625 -1.46875 -3.328125 -1.46875q-1.75 0 -3.15625 1.03125q-1.390625 1.03125 -2.0625 3.015625l-0.65625 0q0.453125 -3.25 2.265625 -4.984375q1.8125 -1.75 4.546875 -1.75q2.890625 0 4.828125 1.859375q1.953125 1.859375 1.953125 4.390625q0 1.8125 -0.84375 3.625q-1.296875 2.84375 -4.21875 6.03125q-4.375 4.78125 -5.46875 5.765625l6.21875 0q1.90625 0 2.671875 -0.140625q0.765625 -0.140625 1.375 -0.5625q0.625 -0.4375 1.078125 -1.234375l0.640625 0z" fill-rule="nonzero"/><path fill="#cfe2f3" d="m366.07874 159.10236l15.795288 -15.795273l0 7.897644l196.25195 0l0 -7.897644l15.795288 15.795273l-15.795288 15.795288l0 -7.897644l-196.25195 0l0 7.897644z" fill-rule="evenodd"/><path stroke="#000000" stroke-width="1.0" stroke-linejoin="round" stroke-linecap="butt" d="m366.07874 159.10236l15.795288 -15.795273l0 7.897644l196.25195 0l0 -7.897644l15.795288 15.795273l-15.795288 15.795288l0 -7.897644l-196.25195 0l0 7.897644z" fill-rule="evenodd"/></g></svg>