<svg id="visual" viewBox="0 0 900 600" width="900" height="600" xmlns="http://www.w3.org/2000/svg" xmlns:xlink="http://www.w3.org/1999/xlink" version="1.1"><g stroke-width="1" stroke-linejoin="bevel"><path d="M400.7 355L422.7 488L497.3 367Z" fill="#3a7fad" stroke="#3a7fad"></path><path d="M422.7 488L521.3 491L497.3 367Z" fill="#3879a8" stroke="#3879a8"></path><path d="M400.7 355L262.1 456L422.7 488Z" fill="#489ac5" stroke="#489ac5"></path><path d="M276.1 348L262.1 456L400.7 355Z" fill="#489ac5" stroke="#489ac5"></path><path d="M422.7 488L488.3 600L521.3 491Z" fill="#3a7fad" stroke="#3a7fad"></path><path d="M369.7 600L488.3 600L422.7 488Z" fill="#52abd3" stroke="#52abd3"></path><path d="M262.1 456L369.7 600L422.7 488Z" fill="#3879a8" stroke="#3879a8"></path><path d="M635.9 517L647.9 373L521.3 491Z" fill="#52abd3" stroke="#52abd3"></path><path d="M521.3 491L647.9 373L497.3 367Z" fill="#428fbb" stroke="#428fbb"></path><path d="M497.3 367L553.3 233L400.7 355Z" fill="#4ba0ca" stroke="#4ba0ca"></path><path d="M647.9 373L553.3 233L497.3 367Z" fill="#3d84b2" stroke="#3d84b2"></path><path d="M400.7 355L348.7 223L276.1 348Z" fill="#3f8ab6" stroke="#3f8ab6"></path><path d="M553.3 233L348.7 223L400.7 355Z" fill="#3d84b2" stroke="#3d84b2"></path><path d="M488.3 600L635.9 517L521.3 491Z" fill="#3a7fad" stroke="#3a7fad"></path><path d="M262.1 456L274.1 600L369.7 600Z" fill="#4595c0" stroke="#4595c0"></path><path d="M348.7 223L235.1 276L276.1 348Z" fill="#3879a8" stroke="#3879a8"></path><path d="M276.1 348L139.6 459L262.1 456Z" fill="#4fa5ce" stroke="#4fa5ce"></path><path d="M262.1 456L139.6 459L274.1 600Z" fill="#489ac5" stroke="#489ac5"></path><path d="M488.3 600L652.9 600L635.9 517Z" fill="#4595c0" stroke="#4595c0"></path><path d="M787.4 350L740.4 257L647.9 373Z" fill="#4fa5ce" stroke="#4fa5ce"></path><path d="M91.6 323L139.6 459L276.1 348Z" fill="#3879a8" stroke="#3879a8"></path><path d="M647.9 373L679.9 219L553.3 233Z" fill="#4fa5ce" stroke="#4fa5ce"></path><path d="M553.3 233L496.3 111L348.7 223Z" fill="#52abd3" stroke="#52abd3"></path><path d="M740.4 257L679.9 219L647.9 373Z" fill="#3d84b2" stroke="#3d84b2"></path><path d="M680.9 140L496.3 111L553.3 233Z" fill="#4fa5ce" stroke="#4fa5ce"></path><path d="M222.1 109L156.6 214L235.1 276Z" fill="#428fbb" stroke="#428fbb"></path><path d="M496.3 111L351.7 91L348.7 223Z" fill="#3f8ab6" stroke="#3f8ab6"></path><path d="M787.4 350L647.9 373L787.4 488Z" fill="#489ac5" stroke="#489ac5"></path><path d="M222.1 109L235.1 276L348.7 223Z" fill="#428fbb" stroke="#428fbb"></path><path d="M235.1 276L91.6 323L276.1 348Z" fill="#4fa5ce" stroke="#4fa5ce"></path><path d="M787.4 488L647.9 373L635.9 517Z" fill="#4fa5ce" stroke="#4fa5ce"></path><path d="M652.9 600L787.4 488L635.9 517Z" fill="#3674a3" stroke="#3674a3"></path><path d="M156.6 214L91.6 323L235.1 276Z" fill="#4595c0" stroke="#4595c0"></path><path d="M740.4 257L680.9 140L679.9 219Z" fill="#52abd3" stroke="#52abd3"></path><path d="M679.9 219L680.9 140L553.3 233Z" fill="#4595c0" stroke="#4595c0"></path><path d="M0 491L121.6 600L139.6 459Z" fill="#3d84b2" stroke="#3d84b2"></path><path d="M139.6 459L121.6 600L274.1 600Z" fill="#3f8ab6" stroke="#3f8ab6"></path><path d="M351.7 91L222.1 109L348.7 223Z" fill="#4fa5ce" stroke="#4fa5ce"></path><path d="M652.9 600L810.4 600L787.4 488Z" fill="#3f8ab6" stroke="#3f8ab6"></path><path d="M787.4 488L900 453L787.4 350Z" fill="#3879a8" stroke="#3879a8"></path><path d="M496.3 111L395.7 0L351.7 91Z" fill="#4595c0" stroke="#4595c0"></path><path d="M351.7 91L224.1 0L222.1 109Z" fill="#52abd3" stroke="#52abd3"></path><path d="M546.3 0L395.7 0L496.3 111Z" fill="#3879a8" stroke="#3879a8"></path><path d="M680.9 140L546.3 0L496.3 111Z" fill="#4fa5ce" stroke="#4fa5ce"></path><path d="M91.6 323L0 491L139.6 459Z" fill="#3a7fad" stroke="#3a7fad"></path><path d="M0 243L0 322L91.6 323Z" fill="#3879a8" stroke="#3879a8"></path><path d="M91.6 323L0 322L0 491Z" fill="#4ba0ca" stroke="#4ba0ca"></path><path d="M0 243L91.6 323L156.6 214Z" fill="#3d84b2" stroke="#3d84b2"></path><path d="M222.1 109L125.6 92L156.6 214Z" fill="#3d84b2" stroke="#3d84b2"></path><path d="M224.1 0L125.6 92L222.1 109Z" fill="#489ac5" stroke="#489ac5"></path><path d="M900 600L900 453L787.4 488Z" fill="#4fa5ce" stroke="#4fa5ce"></path><path d="M787.4 350L900 206L740.4 257Z" fill="#4595c0" stroke="#4595c0"></path><path d="M740.4 257L809.4 114L680.9 140Z" fill="#52abd3" stroke="#52abd3"></path><path d="M900 453L900 352L787.4 350Z" fill="#4595c0" stroke="#4595c0"></path><path d="M680.9 140L649.9 0L546.3 0Z" fill="#4fa5ce" stroke="#4fa5ce"></path><path d="M736.4 0L649.9 0L680.9 140Z" fill="#4595c0" stroke="#4595c0"></path><path d="M395.7 0L224.1 0L351.7 91Z" fill="#4ba0ca" stroke="#4ba0ca"></path><path d="M0 136L0 243L156.6 214Z" fill="#4595c0" stroke="#4595c0"></path><path d="M900 206L809.4 114L740.4 257Z" fill="#3d84b2" stroke="#3d84b2"></path><path d="M0 491L0 600L121.6 600Z" fill="#4fa5ce" stroke="#4fa5ce"></path><path d="M810.4 600L900 600L787.4 488Z" fill="#4595c0" stroke="#4595c0"></path><path d="M900 352L900 206L787.4 350Z" fill="#4ba0ca" stroke="#4ba0ca"></path><path d="M900 0L736.4 0L809.4 114Z" fill="#52abd3" stroke="#52abd3"></path><path d="M809.4 114L736.4 0L680.9 140Z" fill="#3a7fad" stroke="#3a7fad"></path><path d="M0 0L0 136L125.6 92Z" fill="#428fbb" stroke="#428fbb"></path><path d="M125.6 92L0 136L156.6 214Z" fill="#3f8ab6" stroke="#3f8ab6"></path><path d="M224.1 0L119.6 0L125.6 92Z" fill="#4fa5ce" stroke="#4fa5ce"></path><path d="M900 206L900 120L809.4 114Z" fill="#4ba0ca" stroke="#4ba0ca"></path><path d="M119.6 0L0 0L125.6 92Z" fill="#428fbb" stroke="#428fbb"></path><path d="M900 120L900 0L809.4 114Z" fill="#4595c0" stroke="#4595c0"></path></g></svg>