<svg width="1241" height="633" viewBox="0 0 1241 633" fill="none" xmlns="http://www.w3.org/2000/svg">
<rect x="1" y="1" width="1239" height="93" fill="#A8E0FF" stroke="black" stroke-width="2"/>
<path d="M16.06 568.24C15.1267 568.24 14.2467 568.067 13.42 567.72C12.5933 567.373 11.8733 566.9 11.26 566.3L12.42 564.94C12.9267 565.407 13.5 565.787 14.14 566.08C14.78 566.36 15.46 566.5 16.18 566.5C17.0067 566.5 17.6467 566.327 18.1 565.98C18.5533 565.633 18.78 565.193 18.78 564.66C18.78 564.233 18.68 563.893 18.48 563.64C18.28 563.387 18.0067 563.173 17.66 563C17.3267 562.827 16.94 562.653 16.5 562.48L14.66 561.66C14.22 561.487 13.78 561.26 13.34 560.98C12.9133 560.687 12.56 560.32 12.28 559.88C12 559.427 11.86 558.88 11.86 558.24C11.86 557.56 12.0467 556.953 12.42 556.42C12.7933 555.873 13.3133 555.447 13.98 555.14C14.6467 554.82 15.4133 554.66 16.28 554.66C17.0933 554.66 17.8533 554.813 18.56 555.12C19.2667 555.413 19.8733 555.807 20.38 556.3L19.34 557.58C18.9133 557.207 18.4467 556.92 17.94 556.72C17.4467 556.507 16.86 556.4 16.18 556.4C15.5 556.4 14.9467 556.553 14.52 556.86C14.0933 557.167 13.88 557.587 13.88 558.12C13.88 558.507 13.9867 558.82 14.2 559.06C14.4267 559.3 14.7133 559.5 15.06 559.66C15.42 559.82 15.7867 559.98 16.16 560.14L17.94 560.92C18.4867 561.133 18.9733 561.393 19.4 561.7C19.84 561.993 20.1867 562.36 20.44 562.8C20.6933 563.24 20.82 563.78 20.82 564.42C20.82 565.127 20.6267 565.773 20.24 566.36C19.8667 566.933 19.32 567.393 18.6 567.74C17.8933 568.073 17.0467 568.24 16.06 568.24ZM27.9922 568.24C27.1389 568.24 26.3389 568.04 25.5922 567.64C24.8589 567.24 24.2589 566.66 23.7922 565.9C23.3389 565.127 23.1122 564.2 23.1122 563.12C23.1122 562.04 23.3389 561.12 23.7922 560.36C24.2589 559.587 24.8589 559 25.5922 558.6C26.3389 558.187 27.1389 557.98 27.9922 557.98C28.8455 557.98 29.6389 558.187 30.3722 558.6C31.1189 559 31.7189 559.587 32.1722 560.36C32.6389 561.12 32.8722 562.04 32.8722 563.12C32.8722 564.2 32.6389 565.127 32.1722 565.9C31.7189 566.66 31.1189 567.24 30.3722 567.64C29.6389 568.04 28.8455 568.24 27.9922 568.24ZM27.9922 566.62C28.5655 566.62 29.0655 566.473 29.4922 566.18C29.9189 565.887 30.2455 565.48 30.4722 564.96C30.7122 564.44 30.8322 563.827 30.8322 563.12C30.8322 562.427 30.7122 561.82 30.4722 561.3C30.2455 560.767 29.9189 560.353 29.4922 560.06C29.0655 559.767 28.5655 559.62 27.9922 559.62C27.4189 559.62 26.9189 559.767 26.4922 560.06C26.0655 560.353 25.7322 560.767 25.4922 561.3C25.2655 561.82 25.1522 562.427 25.1522 563.12C25.1522 563.827 25.2655 564.44 25.4922 564.96C25.7322 565.48 26.0655 565.887 26.4922 566.18C26.9189 566.473 27.4189 566.62 27.9922 566.62ZM35.0244 568V558.22H36.5844L36.7444 559.5H36.7844C37.0244 559.06 37.311 558.7 37.6444 558.42C37.9777 558.127 38.4244 557.98 38.9844 557.98C39.451 557.98 39.8377 558.12 40.1444 558.4C40.451 558.68 40.6644 559.1 40.7844 559.66C41.051 559.153 41.351 558.747 41.6844 558.44C42.031 558.133 42.4844 557.98 43.0444 557.98C43.7377 557.98 44.271 558.247 44.6444 558.78C45.031 559.313 45.2244 560.067 45.2244 561.04V568H43.2844V561.18C43.2844 560.18 42.9844 559.68 42.3844 559.68C42.091 559.68 41.8444 559.793 41.6444 560.02C41.4444 560.247 41.2244 560.587 40.9844 561.04V568H39.2644V561.18C39.2644 560.687 39.191 560.313 39.0444 560.06C38.911 559.807 38.691 559.68 38.3844 559.68C38.091 559.68 37.831 559.793 37.6044 560.02C37.391 560.247 37.1777 560.587 36.9644 561.04V568H35.0244ZM52.5766 568.24C51.5899 568.24 50.6899 568.04 49.8766 567.64C49.0766 567.24 48.4432 566.653 47.9766 565.88C47.5099 565.107 47.2766 564.18 47.2766 563.1C47.2766 562.033 47.5099 561.12 47.9766 560.36C48.4566 559.6 49.0766 559.013 49.8366 558.6C50.5966 558.187 51.4099 557.98 52.2766 557.98C53.2366 557.98 54.0499 558.18 54.7166 558.58C55.3832 558.967 55.8899 559.507 56.2366 560.2C56.5966 560.88 56.7766 561.68 56.7766 562.6C56.7766 562.8 56.7699 563 56.7566 563.2C56.7432 563.387 56.7232 563.547 56.6966 563.68H48.6566V562.22H55.4566L55.0166 562.7C55.0166 561.647 54.7766 560.86 54.2966 560.34C53.8166 559.807 53.1632 559.54 52.3366 559.54C51.7632 559.54 51.2366 559.68 50.7566 559.96C50.2899 560.227 49.9166 560.627 49.6366 561.16C49.3566 561.68 49.2166 562.327 49.2166 563.1C49.2166 563.9 49.3699 564.567 49.6766 565.1C49.9966 565.62 50.4232 566.013 50.9566 566.28C51.5032 566.547 52.1299 566.68 52.8366 566.68C53.3832 566.68 53.8832 566.607 54.3366 566.46C54.7899 566.3 55.2366 566.087 55.6766 565.82L56.3766 567.08C55.8832 567.413 55.3166 567.693 54.6766 567.92C54.0366 568.133 53.3366 568.24 52.5766 568.24ZM78.2209 572V568.6L78.3209 566.84H78.2609C77.8876 567.24 77.4409 567.573 76.9209 567.84C76.4009 568.107 75.8543 568.24 75.2809 568.24C74.0276 568.24 73.0143 567.793 72.2409 566.9C71.4676 565.993 71.0809 564.733 71.0809 563.12C71.0809 562.067 71.2876 561.16 71.7009 560.4C72.1276 559.627 72.6743 559.033 73.3409 558.62C74.0076 558.193 74.7143 557.98 75.4609 557.98C76.0476 557.98 76.5743 558.093 77.0409 558.32C77.5076 558.533 77.9609 558.853 78.4009 559.28H78.4609L78.6409 558.22H80.2009V572H78.2209ZM75.7609 566.6C76.2009 566.6 76.6209 566.493 77.0209 566.28C77.4343 566.053 77.8343 565.72 78.2209 565.28V560.64C77.8343 560.28 77.4476 560.027 77.0609 559.88C76.6743 559.72 76.2876 559.64 75.9009 559.64C75.3943 559.64 74.9276 559.78 74.5009 560.06C74.0876 560.34 73.7543 560.74 73.5009 561.26C73.2476 561.78 73.1209 562.393 73.1209 563.1C73.1209 564.22 73.3543 565.087 73.8209 565.7C74.2876 566.3 74.9343 566.6 75.7609 566.6ZM86.7531 568.24C85.6065 568.24 84.7598 567.9 84.2131 567.22C83.6798 566.54 83.4131 565.56 83.4131 564.28V558.22H85.3931V564.02C85.3931 564.887 85.5465 565.527 85.8531 565.94C86.1731 566.34 86.6998 566.54 87.4331 566.54C87.9531 566.54 88.4198 566.413 88.8331 566.16C89.2465 565.907 89.6931 565.493 90.1731 564.92V558.22H92.1531V568H90.5331L90.3731 566.38H90.2931C89.8131 566.927 89.2865 567.373 88.7131 567.72C88.1531 568.067 87.4998 568.24 86.7531 568.24ZM100.545 568.24C99.5586 568.24 98.6586 568.04 97.8453 567.64C97.0453 567.24 96.412 566.653 95.9453 565.88C95.4786 565.107 95.2453 564.18 95.2453 563.1C95.2453 562.033 95.4786 561.12 95.9453 560.36C96.4253 559.6 97.0453 559.013 97.8053 558.6C98.5653 558.187 99.3786 557.98 100.245 557.98C101.205 557.98 102.019 558.18 102.685 558.58C103.352 558.967 103.859 559.507 104.205 560.2C104.565 560.88 104.745 561.68 104.745 562.6C104.745 562.8 104.739 563 104.725 563.2C104.712 563.387 104.692 563.547 104.665 563.68H96.6253V562.22H103.425L102.985 562.7C102.985 561.647 102.745 560.86 102.265 560.34C101.785 559.807 101.132 559.54 100.305 559.54C99.732 559.54 99.2053 559.68 98.7253 559.96C98.2586 560.227 97.8853 560.627 97.6053 561.16C97.3253 561.68 97.1853 562.327 97.1853 563.1C97.1853 563.9 97.3386 564.567 97.6453 565.1C97.9653 565.62 98.392 566.013 98.9253 566.28C99.472 566.547 100.099 566.68 100.805 566.68C101.352 566.68 101.852 566.607 102.305 566.46C102.759 566.3 103.205 566.087 103.645 565.82L104.345 567.08C103.852 567.413 103.285 567.693 102.645 567.92C102.005 568.133 101.305 568.24 100.545 568.24ZM112.058 568.24C111.138 568.24 110.258 568.087 109.418 567.78C108.578 567.473 107.864 567.12 107.278 566.72L108.158 565.44C108.731 565.84 109.351 566.153 110.018 566.38C110.698 566.607 111.464 566.72 112.318 566.72C113.064 566.72 113.618 566.587 113.978 566.32C114.351 566.053 114.538 565.74 114.538 565.38C114.538 565.207 114.498 565.047 114.418 564.9C114.351 564.753 114.218 564.62 114.018 564.5C113.831 564.367 113.544 564.24 113.158 564.12C112.784 564 112.291 563.873 111.678 563.74C110.384 563.473 109.424 563.107 108.798 562.64C108.184 562.173 107.878 561.573 107.878 560.84C107.878 560.013 108.231 559.333 108.938 558.8C109.658 558.253 110.698 557.98 112.058 557.98C112.831 557.98 113.564 558.113 114.258 558.38C114.964 558.633 115.564 558.927 116.058 559.26L115.138 560.5C114.671 560.193 114.158 559.953 113.598 559.78C113.051 559.593 112.478 559.5 111.878 559.5C111.384 559.5 110.991 559.56 110.698 559.68C110.404 559.787 110.191 559.933 110.058 560.12C109.924 560.307 109.858 560.513 109.858 560.74C109.858 561.113 110.064 561.407 110.478 561.62C110.904 561.82 111.591 562.02 112.538 562.22C113.604 562.447 114.424 562.7 114.998 562.98C115.584 563.26 115.984 563.587 116.198 563.96C116.424 564.32 116.538 564.753 116.538 565.26C116.538 565.807 116.364 566.307 116.018 566.76C115.671 567.213 115.164 567.573 114.498 567.84C113.844 568.107 113.031 568.24 112.058 568.24ZM125.79 568.24C124.803 568.24 124.023 568.067 123.45 567.72C122.89 567.373 122.49 566.893 122.25 566.28C122.01 565.667 121.89 564.953 121.89 564.14V559.82H119.21V558.34L121.97 558.22L122.23 555.14H123.87V558.22H128.49V559.82H123.87V564.14C123.87 564.687 123.943 565.153 124.09 565.54C124.236 565.913 124.483 566.193 124.83 566.38C125.176 566.553 125.643 566.64 126.23 566.64C126.67 566.64 127.07 566.607 127.43 566.54C127.79 566.46 128.136 566.36 128.47 566.24L128.87 567.68C128.43 567.827 127.956 567.953 127.45 568.06C126.956 568.18 126.403 568.24 125.79 568.24ZM136.042 568V559.82H131.662V558.22H138.022V568H136.042ZM136.862 556.32C136.435 556.32 136.082 556.193 135.802 555.94C135.522 555.673 135.382 555.327 135.382 554.9C135.382 554.473 135.522 554.133 135.802 553.88C136.082 553.613 136.435 553.48 136.862 553.48C137.289 553.48 137.642 553.613 137.922 553.88C138.202 554.133 138.342 554.473 138.342 554.9C138.342 555.327 138.202 555.673 137.922 555.94C137.642 556.193 137.289 556.32 136.862 556.32ZM147.914 568.24C147.061 568.24 146.261 568.04 145.514 567.64C144.781 567.24 144.181 566.66 143.714 565.9C143.261 565.127 143.034 564.2 143.034 563.12C143.034 562.04 143.261 561.12 143.714 560.36C144.181 559.587 144.781 559 145.514 558.6C146.261 558.187 147.061 557.98 147.914 557.98C148.767 557.98 149.561 558.187 150.294 558.6C151.041 559 151.641 559.587 152.094 560.36C152.561 561.12 152.794 562.04 152.794 563.12C152.794 564.2 152.561 565.127 152.094 565.9C151.641 566.66 151.041 567.24 150.294 567.64C149.561 568.04 148.767 568.24 147.914 568.24ZM147.914 566.62C148.487 566.62 148.987 566.473 149.414 566.18C149.841 565.887 150.167 565.48 150.394 564.96C150.634 564.44 150.754 563.827 150.754 563.12C150.754 562.427 150.634 561.82 150.394 561.3C150.167 560.767 149.841 560.353 149.414 560.06C148.987 559.767 148.487 559.62 147.914 559.62C147.341 559.62 146.841 559.767 146.414 560.06C145.987 560.353 145.654 560.767 145.414 561.3C145.187 561.82 145.074 562.427 145.074 563.12C145.074 563.827 145.187 564.44 145.414 564.96C145.654 565.48 145.987 565.887 146.414 566.18C146.841 566.473 147.341 566.62 147.914 566.62ZM155.666 568V558.22H157.286L157.446 559.8H157.526C158.02 559.293 158.553 558.867 159.126 558.52C159.7 558.16 160.366 557.98 161.126 557.98C162.26 557.98 163.093 558.327 163.626 559.02C164.173 559.7 164.446 560.673 164.446 561.94V568H162.466V562.2C162.466 561.347 162.306 560.72 161.986 560.32C161.68 559.907 161.16 559.7 160.426 559.7C159.906 559.7 159.44 559.833 159.026 560.1C158.613 560.353 158.153 560.74 157.646 561.26V568H155.666ZM185.751 568.24C184.764 568.24 183.984 568.067 183.411 567.72C182.851 567.373 182.451 566.893 182.211 566.28C181.971 565.667 181.851 564.953 181.851 564.14V559.82H179.171V558.34L181.931 558.22L182.191 555.14H183.831V558.22H188.451V559.82H183.831V564.14C183.831 564.687 183.904 565.153 184.051 565.54C184.197 565.913 184.444 566.193 184.791 566.38C185.137 566.553 185.604 566.64 186.191 566.64C186.631 566.64 187.031 566.607 187.391 566.54C187.751 566.46 188.097 566.36 188.431 566.24L188.831 567.68C188.391 567.827 187.917 567.953 187.411 568.06C186.917 568.18 186.364 568.24 185.751 568.24ZM191.643 568V553.82H193.623V557.58L193.503 559.78H193.563C194.029 559.287 194.549 558.867 195.123 558.52C195.696 558.16 196.356 557.98 197.103 557.98C198.249 557.98 199.089 558.327 199.623 559.02C200.156 559.7 200.423 560.673 200.423 561.94V568H198.443V562.2C198.443 561.347 198.283 560.72 197.963 560.32C197.656 559.907 197.136 559.7 196.403 559.7C195.883 559.7 195.416 559.833 195.003 560.1C194.589 560.353 194.129 560.74 193.623 561.26V568H191.643ZM206.695 568.24C206.068 568.24 205.502 568.127 204.995 567.9C204.502 567.66 204.108 567.333 203.815 566.92C203.535 566.493 203.395 565.993 203.395 565.42C203.395 564.327 203.928 563.493 204.995 562.92C206.075 562.347 207.842 561.967 210.295 561.78C210.282 561.38 210.188 561.013 210.015 560.68C209.855 560.347 209.595 560.087 209.235 559.9C208.888 559.7 208.428 559.6 207.855 559.6C207.455 559.6 207.062 559.653 206.675 559.76C206.288 559.853 205.915 559.987 205.555 560.16C205.195 560.333 204.855 560.513 204.535 560.7L203.795 559.36C204.155 559.147 204.568 558.933 205.035 558.72C205.502 558.493 206.002 558.313 206.535 558.18C207.082 558.047 207.635 557.98 208.195 557.98C209.102 557.98 209.855 558.147 210.455 558.48C211.055 558.813 211.508 559.287 211.815 559.9C212.122 560.513 212.275 561.253 212.275 562.12V568H210.655L210.495 566.74H210.435C209.915 567.14 209.328 567.493 208.675 567.8C208.022 568.093 207.362 568.24 206.695 568.24ZM207.255 566.66C207.775 566.66 208.288 566.547 208.795 566.32C209.302 566.093 209.802 565.773 210.295 565.36V563.04C209.015 563.133 208.008 563.28 207.275 563.48C206.555 563.68 206.048 563.933 205.755 564.24C205.462 564.533 205.315 564.88 205.315 565.28C205.315 565.6 205.402 565.867 205.575 566.08C205.762 566.28 206.002 566.427 206.295 566.52C206.588 566.613 206.908 566.66 207.255 566.66ZM221.727 568.24C220.741 568.24 219.961 568.067 219.387 567.72C218.827 567.373 218.427 566.893 218.187 566.28C217.947 565.667 217.827 564.953 217.827 564.14V559.82H215.147V558.34L217.907 558.22L218.167 555.14H219.807V558.22H224.427V559.82H219.807V564.14C219.807 564.687 219.881 565.153 220.027 565.54C220.174 565.913 220.421 566.193 220.767 566.38C221.114 566.553 221.581 566.64 222.167 566.64C222.607 566.64 223.007 566.607 223.367 566.54C223.727 566.46 224.074 566.36 224.407 566.24L224.807 567.68C224.367 567.827 223.894 567.953 223.387 568.06C222.894 568.18 222.341 568.24 221.727 568.24ZM243.972 568V559.82H239.592V558.22H245.952V568H243.972ZM244.792 556.32C244.365 556.32 244.012 556.193 243.732 555.94C243.452 555.673 243.312 555.327 243.312 554.9C243.312 554.473 243.452 554.133 243.732 553.88C244.012 553.613 244.365 553.48 244.792 553.48C245.218 553.48 245.572 553.613 245.852 553.88C246.132 554.133 246.272 554.473 246.272 554.9C246.272 555.327 246.132 555.673 245.852 555.94C245.572 556.193 245.218 556.32 244.792 556.32ZM255.964 568.24C255.044 568.24 254.164 568.087 253.324 567.78C252.484 567.473 251.77 567.12 251.184 566.72L252.064 565.44C252.637 565.84 253.257 566.153 253.924 566.38C254.604 566.607 255.37 566.72 256.224 566.72C256.97 566.72 257.524 566.587 257.884 566.32C258.257 566.053 258.444 565.74 258.444 565.38C258.444 565.207 258.404 565.047 258.324 564.9C258.257 564.753 258.124 564.62 257.924 564.5C257.737 564.367 257.45 564.24 257.064 564.12C256.69 564 256.197 563.873 255.584 563.74C254.29 563.473 253.33 563.107 252.704 562.64C252.09 562.173 251.784 561.573 251.784 560.84C251.784 560.013 252.137 559.333 252.844 558.8C253.564 558.253 254.604 557.98 255.964 557.98C256.737 557.98 257.47 558.113 258.164 558.38C258.87 558.633 259.47 558.927 259.964 559.26L259.044 560.5C258.577 560.193 258.064 559.953 257.504 559.78C256.957 559.593 256.384 559.5 255.784 559.5C255.29 559.5 254.897 559.56 254.604 559.68C254.31 559.787 254.097 559.933 253.964 560.12C253.83 560.307 253.764 560.513 253.764 560.74C253.764 561.113 253.97 561.407 254.384 561.62C254.81 561.82 255.497 562.02 256.444 562.22C257.51 562.447 258.33 562.7 258.904 562.98C259.49 563.26 259.89 563.587 260.104 563.96C260.33 564.32 260.444 564.753 260.444 565.26C260.444 565.807 260.27 566.307 259.924 566.76C259.577 567.213 259.07 567.573 258.404 567.84C257.75 568.107 256.937 568.24 255.964 568.24ZM279.648 572.42C278.728 572.42 277.928 572.313 277.248 572.1C276.581 571.9 276.068 571.6 275.708 571.2C275.348 570.813 275.168 570.333 275.168 569.76C275.168 569.36 275.301 568.973 275.568 568.6C275.835 568.24 276.228 567.92 276.748 567.64V567.56C276.495 567.4 276.261 567.193 276.048 566.94C275.848 566.687 275.748 566.353 275.748 565.94C275.748 565.62 275.848 565.3 276.048 564.98C276.261 564.647 276.548 564.353 276.908 564.1V564.02C276.575 563.767 276.288 563.427 276.048 563C275.808 562.573 275.688 562.073 275.688 561.5C275.688 560.767 275.868 560.14 276.228 559.62C276.601 559.1 277.081 558.7 277.668 558.42C278.268 558.127 278.921 557.98 279.628 557.98C280.188 557.98 280.681 558.06 281.108 558.22H285.128V559.78H282.748C282.948 559.993 283.115 560.26 283.248 560.58C283.395 560.887 283.468 561.213 283.468 561.56C283.468 562.28 283.295 562.887 282.948 563.38C282.615 563.873 282.155 564.253 281.568 564.52C280.995 564.773 280.348 564.9 279.628 564.9C279.388 564.9 279.128 564.873 278.848 564.82C278.581 564.767 278.315 564.687 278.048 564.58C277.835 564.727 277.668 564.88 277.548 565.04C277.428 565.2 277.368 565.387 277.368 565.6C277.368 565.947 277.535 566.207 277.868 566.38C278.201 566.54 278.681 566.62 279.308 566.62H281.388C282.655 566.62 283.601 566.8 284.228 567.16C284.868 567.52 285.188 568.12 285.188 568.96C285.188 569.587 284.961 570.16 284.508 570.68C284.055 571.213 283.415 571.633 282.588 571.94C281.761 572.26 280.781 572.42 279.648 572.42ZM279.628 563.62C280.001 563.62 280.341 563.54 280.648 563.38C280.955 563.207 281.201 562.96 281.388 562.64C281.575 562.32 281.668 561.94 281.668 561.5C281.668 561.073 281.575 560.707 281.388 560.4C281.201 560.08 280.955 559.833 280.648 559.66C280.341 559.473 280.001 559.38 279.628 559.38C279.255 559.38 278.908 559.473 278.588 559.66C278.281 559.833 278.035 560.08 277.848 560.4C277.661 560.707 277.568 561.073 277.568 561.5C277.568 561.94 277.661 562.32 277.848 562.64C278.035 562.96 278.281 563.207 278.588 563.38C278.908 563.54 279.255 563.62 279.628 563.62ZM279.848 571.04C280.555 571.04 281.161 570.953 281.668 570.78C282.175 570.62 282.561 570.407 282.828 570.14C283.108 569.887 283.248 569.607 283.248 569.3C283.248 568.86 283.075 568.567 282.728 568.42C282.381 568.287 281.861 568.22 281.168 568.22H279.428C279.121 568.22 278.848 568.207 278.608 568.18C278.368 568.153 278.148 568.113 277.948 568.06C277.535 568.287 277.241 568.52 277.068 568.76C276.908 569.013 276.828 569.267 276.828 569.52C276.828 569.987 277.088 570.353 277.608 570.62C278.128 570.9 278.875 571.04 279.848 571.04ZM291.82 568.24C290.967 568.24 290.167 568.04 289.42 567.64C288.687 567.24 288.087 566.66 287.62 565.9C287.167 565.127 286.94 564.2 286.94 563.12C286.94 562.04 287.167 561.12 287.62 560.36C288.087 559.587 288.687 559 289.42 558.6C290.167 558.187 290.967 557.98 291.82 557.98C292.674 557.98 293.467 558.187 294.2 558.6C294.947 559 295.547 559.587 296 560.36C296.467 561.12 296.7 562.04 296.7 563.12C296.7 564.2 296.467 565.127 296 565.9C295.547 566.66 294.947 567.24 294.2 567.64C293.467 568.04 292.674 568.24 291.82 568.24ZM291.82 566.62C292.394 566.62 292.894 566.473 293.32 566.18C293.747 565.887 294.074 565.48 294.3 564.96C294.54 564.44 294.66 563.827 294.66 563.12C294.66 562.427 294.54 561.82 294.3 561.3C294.074 560.767 293.747 560.353 293.32 560.06C292.894 559.767 292.394 559.62 291.82 559.62C291.247 559.62 290.747 559.767 290.32 560.06C289.894 560.353 289.56 560.767 289.32 561.3C289.094 561.82 288.98 562.427 288.98 563.12C288.98 563.827 289.094 564.44 289.32 564.96C289.56 565.48 289.894 565.887 290.32 566.18C290.747 566.473 291.247 566.62 291.82 566.62ZM303.813 568.24C302.959 568.24 302.159 568.04 301.413 567.64C300.679 567.24 300.079 566.66 299.613 565.9C299.159 565.127 298.933 564.2 298.933 563.12C298.933 562.04 299.159 561.12 299.613 560.36C300.079 559.587 300.679 559 301.413 558.6C302.159 558.187 302.959 557.98 303.813 557.98C304.666 557.98 305.459 558.187 306.193 558.6C306.939 559 307.539 559.587 307.993 560.36C308.459 561.12 308.693 562.04 308.693 563.12C308.693 564.2 308.459 565.127 307.993 565.9C307.539 566.66 306.939 567.24 306.193 567.64C305.459 568.04 304.666 568.24 303.813 568.24ZM303.813 566.62C304.386 566.62 304.886 566.473 305.313 566.18C305.739 565.887 306.066 565.48 306.293 564.96C306.533 564.44 306.653 563.827 306.653 563.12C306.653 562.427 306.533 561.82 306.293 561.3C306.066 560.767 305.739 560.353 305.313 560.06C304.886 559.767 304.386 559.62 303.813 559.62C303.239 559.62 302.739 559.767 302.313 560.06C301.886 560.353 301.553 560.767 301.313 561.3C301.086 561.82 300.973 562.427 300.973 563.12C300.973 563.827 301.086 564.44 301.313 564.96C301.553 565.48 301.886 565.887 302.313 566.18C302.739 566.473 303.239 566.62 303.813 566.62ZM315.145 568.24C313.878 568.24 312.858 567.793 312.085 566.9C311.311 565.993 310.925 564.733 310.925 563.12C310.925 562.067 311.131 561.16 311.545 560.4C311.971 559.627 312.518 559.033 313.185 558.62C313.851 558.193 314.558 557.98 315.305 557.98C315.878 557.98 316.391 558.087 316.845 558.3C317.298 558.513 317.718 558.813 318.105 559.2H318.165L318.065 557.46V553.82H320.045V568H318.425L318.265 566.8H318.205C317.818 567.187 317.358 567.527 316.825 567.82C316.291 568.1 315.731 568.24 315.145 568.24ZM315.605 566.6C316.045 566.6 316.465 566.493 316.865 566.28C317.278 566.053 317.678 565.72 318.065 565.28V560.64C317.678 560.28 317.291 560.027 316.905 559.88C316.518 559.72 316.131 559.64 315.745 559.64C315.238 559.64 314.771 559.78 314.345 560.06C313.931 560.34 313.598 560.74 313.345 561.26C313.091 561.78 312.965 562.393 312.965 563.1C312.965 564.22 313.198 565.087 313.665 565.7C314.131 566.3 314.778 566.6 315.605 566.6ZM338.609 568.24C337.982 568.24 337.416 568.127 336.909 567.9C336.416 567.66 336.022 567.333 335.729 566.92C335.449 566.493 335.309 565.993 335.309 565.42C335.309 564.327 335.842 563.493 336.909 562.92C337.989 562.347 339.756 561.967 342.209 561.78C342.196 561.38 342.102 561.013 341.929 560.68C341.769 560.347 341.509 560.087 341.149 559.9C340.802 559.7 340.342 559.6 339.769 559.6C339.369 559.6 338.976 559.653 338.589 559.76C338.202 559.853 337.829 559.987 337.469 560.16C337.109 560.333 336.769 560.513 336.449 560.7L335.709 559.36C336.069 559.147 336.482 558.933 336.949 558.72C337.416 558.493 337.916 558.313 338.449 558.18C338.996 558.047 339.549 557.98 340.109 557.98C341.016 557.98 341.769 558.147 342.369 558.48C342.969 558.813 343.422 559.287 343.729 559.9C344.036 560.513 344.189 561.253 344.189 562.12V568H342.569L342.409 566.74H342.349C341.829 567.14 341.242 567.493 340.589 567.8C339.936 568.093 339.276 568.24 338.609 568.24ZM339.169 566.66C339.689 566.66 340.202 566.547 340.709 566.32C341.216 566.093 341.716 565.773 342.209 565.36V563.04C340.929 563.133 339.922 563.28 339.189 563.48C338.469 563.68 337.962 563.933 337.669 564.24C337.376 564.533 337.229 564.88 337.229 565.28C337.229 565.6 337.316 565.867 337.489 566.08C337.676 566.28 337.916 566.427 338.209 566.52C338.502 566.613 338.822 566.66 339.169 566.66ZM347.541 568V558.22H349.161L349.321 559.8H349.401C349.895 559.293 350.428 558.867 351.001 558.52C351.575 558.16 352.241 557.98 353.001 557.98C354.135 557.98 354.968 558.327 355.501 559.02C356.048 559.7 356.321 560.673 356.321 561.94V568H354.341V562.2C354.341 561.347 354.181 560.72 353.861 560.32C353.555 559.907 353.035 559.7 352.301 559.7C351.781 559.7 351.315 559.833 350.901 560.1C350.488 560.353 350.028 560.74 349.521 561.26V568H347.541ZM363.113 568.24C361.847 568.24 360.827 567.793 360.053 566.9C359.28 565.993 358.893 564.733 358.893 563.12C358.893 562.067 359.1 561.16 359.513 560.4C359.94 559.627 360.487 559.033 361.153 558.62C361.82 558.193 362.527 557.98 363.273 557.98C363.847 557.98 364.36 558.087 364.813 558.3C365.267 558.513 365.687 558.813 366.073 559.2H366.133L366.033 557.46V553.82H368.013V568H366.393L366.233 566.8H366.173C365.787 567.187 365.327 567.527 364.793 567.82C364.26 568.1 363.7 568.24 363.113 568.24ZM363.573 566.6C364.013 566.6 364.433 566.493 364.833 566.28C365.247 566.053 365.647 565.72 366.033 565.28V560.64C365.647 560.28 365.26 560.027 364.873 559.88C364.487 559.72 364.1 559.64 363.713 559.64C363.207 559.64 362.74 559.78 362.313 560.06C361.9 560.34 361.567 560.74 361.313 561.26C361.06 561.78 360.933 562.393 360.933 563.1C360.933 564.22 361.167 565.087 361.633 565.7C362.1 566.3 362.747 566.6 363.573 566.6ZM384.438 572.1C384.198 572.1 383.958 572.08 383.718 572.04C383.478 572 383.271 571.953 383.098 571.9L383.498 570.36C383.618 570.4 383.751 570.433 383.898 570.46C384.044 570.487 384.191 570.5 384.338 570.5C384.991 570.5 385.518 570.32 385.918 569.96C386.318 569.6 386.631 569.153 386.858 568.62L387.118 567.94L382.658 558.22H384.638L386.838 563.32C387.011 563.76 387.191 564.227 387.378 564.72C387.578 565.2 387.778 565.687 387.978 566.18H388.058C388.218 565.713 388.384 565.233 388.558 564.74C388.731 564.233 388.898 563.76 389.058 563.32L390.998 558.22H392.878L388.698 568.62C388.444 569.313 388.131 569.92 387.758 570.44C387.384 570.96 386.924 571.367 386.378 571.66C385.844 571.953 385.198 572.1 384.438 572.1ZM400.35 568.24C399.363 568.24 398.463 568.04 397.65 567.64C396.85 567.24 396.217 566.653 395.75 565.88C395.283 565.107 395.05 564.18 395.05 563.1C395.05 562.033 395.283 561.12 395.75 560.36C396.23 559.6 396.85 559.013 397.61 558.6C398.37 558.187 399.183 557.98 400.05 557.98C401.01 557.98 401.823 558.18 402.49 558.58C403.157 558.967 403.663 559.507 404.01 560.2C404.37 560.88 404.55 561.68 404.55 562.6C404.55 562.8 404.543 563 404.53 563.2C404.517 563.387 404.497 563.547 404.47 563.68H396.43V562.22H403.23L402.79 562.7C402.79 561.647 402.55 560.86 402.07 560.34C401.59 559.807 400.937 559.54 400.11 559.54C399.537 559.54 399.01 559.68 398.53 559.96C398.063 560.227 397.69 560.627 397.41 561.16C397.13 561.68 396.99 562.327 396.99 563.1C396.99 563.9 397.143 564.567 397.45 565.1C397.77 565.62 398.197 566.013 398.73 566.28C399.277 566.547 399.903 566.68 400.61 566.68C401.157 566.68 401.657 566.607 402.11 566.46C402.563 566.3 403.01 566.087 403.45 565.82L404.15 567.08C403.657 567.413 403.09 567.693 402.45 567.92C401.81 568.133 401.11 568.24 400.35 568.24ZM407.502 572V558.22H409.122L409.282 559.42H409.342C409.782 559.007 410.289 558.667 410.862 558.4C411.436 558.12 412.016 557.98 412.602 557.98C413.469 557.98 414.196 558.187 414.782 558.6C415.382 559.013 415.836 559.593 416.142 560.34C416.462 561.087 416.622 561.96 416.622 562.96C416.622 564.08 416.416 565.033 416.002 565.82C415.589 566.607 415.049 567.207 414.382 567.62C413.716 568.033 412.996 568.24 412.222 568.24C411.782 568.24 411.309 568.133 410.802 567.92C410.309 567.707 409.856 567.413 409.442 567.04H409.382L409.482 568.8V572H407.502ZM411.842 566.6C412.362 566.6 412.829 566.46 413.242 566.18C413.656 565.9 413.982 565.493 414.222 564.96C414.462 564.413 414.582 563.753 414.582 562.98C414.582 562.3 414.489 561.713 414.302 561.22C414.129 560.713 413.862 560.327 413.502 560.06C413.142 559.78 412.662 559.64 412.062 559.64C411.662 559.64 411.242 559.747 410.802 559.96C410.362 560.16 409.922 560.493 409.482 560.96V565.58C409.896 565.94 410.316 566.2 410.742 566.36C411.169 566.52 411.536 566.6 411.842 566.6ZM419.494 572V558.22H421.114L421.274 559.42H421.334C421.774 559.007 422.281 558.667 422.854 558.4C423.428 558.12 424.008 557.98 424.594 557.98C425.461 557.98 426.188 558.187 426.774 558.6C427.374 559.013 427.828 559.593 428.134 560.34C428.454 561.087 428.614 561.96 428.614 562.96C428.614 564.08 428.408 565.033 427.994 565.82C427.581 566.607 427.041 567.207 426.374 567.62C425.708 568.033 424.988 568.24 424.214 568.24C423.774 568.24 423.301 568.133 422.794 567.92C422.301 567.707 421.848 567.413 421.434 567.04H421.374L421.474 568.8V572H419.494ZM423.834 566.6C424.354 566.6 424.821 566.46 425.234 566.18C425.648 565.9 425.974 565.493 426.214 564.96C426.454 564.413 426.574 563.753 426.574 562.98C426.574 562.3 426.481 561.713 426.294 561.22C426.121 560.713 425.854 560.327 425.494 560.06C425.134 559.78 424.654 559.64 424.054 559.64C423.654 559.64 423.234 559.747 422.794 559.96C422.354 560.16 421.914 560.493 421.474 560.96V565.58C421.888 565.94 422.308 566.2 422.734 566.36C423.161 566.52 423.528 566.6 423.834 566.6ZM444.399 572.1C444.159 572.1 443.919 572.08 443.679 572.04C443.439 572 443.232 571.953 443.059 571.9L443.459 570.36C443.579 570.4 443.712 570.433 443.859 570.46C444.005 570.487 444.152 570.5 444.299 570.5C444.952 570.5 445.479 570.32 445.879 569.96C446.279 569.6 446.592 569.153 446.819 568.62L447.079 567.94L442.619 558.22H444.599L446.799 563.32C446.972 563.76 447.152 564.227 447.339 564.72C447.539 565.2 447.739 565.687 447.939 566.18H448.019C448.179 565.713 448.345 565.233 448.519 564.74C448.692 564.233 448.859 563.76 449.019 563.32L450.959 558.22H452.839L448.659 568.62C448.405 569.313 448.092 569.92 447.719 570.44C447.345 570.96 446.885 571.367 446.339 571.66C445.805 571.953 445.159 572.1 444.399 572.1ZM460.311 568.24C459.324 568.24 458.424 568.04 457.611 567.64C456.811 567.24 456.178 566.653 455.711 565.88C455.244 565.107 455.011 564.18 455.011 563.1C455.011 562.033 455.244 561.12 455.711 560.36C456.191 559.6 456.811 559.013 457.571 558.6C458.331 558.187 459.144 557.98 460.011 557.98C460.971 557.98 461.784 558.18 462.451 558.58C463.118 558.967 463.624 559.507 463.971 560.2C464.331 560.88 464.511 561.68 464.511 562.6C464.511 562.8 464.504 563 464.491 563.2C464.478 563.387 464.458 563.547 464.431 563.68H456.391V562.22H463.191L462.751 562.7C462.751 561.647 462.511 560.86 462.031 560.34C461.551 559.807 460.898 559.54 460.071 559.54C459.498 559.54 458.971 559.68 458.491 559.96C458.024 560.227 457.651 560.627 457.371 561.16C457.091 561.68 456.951 562.327 456.951 563.1C456.951 563.9 457.104 564.567 457.411 565.1C457.731 565.62 458.158 566.013 458.691 566.28C459.238 566.547 459.864 566.68 460.571 566.68C461.118 566.68 461.618 566.607 462.071 566.46C462.524 566.3 462.971 566.087 463.411 565.82L464.111 567.08C463.618 567.413 463.051 567.693 462.411 567.92C461.771 568.133 461.071 568.24 460.311 568.24ZM467.463 572V558.22H469.083L469.243 559.42H469.303C469.743 559.007 470.25 558.667 470.823 558.4C471.396 558.12 471.976 557.98 472.563 557.98C473.43 557.98 474.156 558.187 474.743 558.6C475.343 559.013 475.796 559.593 476.103 560.34C476.423 561.087 476.583 561.96 476.583 562.96C476.583 564.08 476.376 565.033 475.963 565.82C475.55 566.607 475.01 567.207 474.343 567.62C473.676 568.033 472.956 568.24 472.183 568.24C471.743 568.24 471.27 568.133 470.763 567.92C470.27 567.707 469.816 567.413 469.403 567.04H469.343L469.443 568.8V572H467.463ZM471.803 566.6C472.323 566.6 472.79 566.46 473.203 566.18C473.616 565.9 473.943 565.493 474.183 564.96C474.423 564.413 474.543 563.753 474.543 562.98C474.543 562.3 474.45 561.713 474.263 561.22C474.09 560.713 473.823 560.327 473.463 560.06C473.103 559.78 472.623 559.64 472.023 559.64C471.623 559.64 471.203 559.747 470.763 559.96C470.323 560.16 469.883 560.493 469.443 560.96V565.58C469.856 565.94 470.276 566.2 470.703 566.36C471.13 566.52 471.496 566.6 471.803 566.6ZM479.455 572V558.22H481.075L481.235 559.42H481.295C481.735 559.007 482.242 558.667 482.815 558.4C483.389 558.12 483.969 557.98 484.555 557.98C485.422 557.98 486.149 558.187 486.735 558.6C487.335 559.013 487.789 559.593 488.095 560.34C488.415 561.087 488.575 561.96 488.575 562.96C488.575 564.08 488.369 565.033 487.955 565.82C487.542 566.607 487.002 567.207 486.335 567.62C485.669 568.033 484.949 568.24 484.175 568.24C483.735 568.24 483.262 568.133 482.755 567.92C482.262 567.707 481.809 567.413 481.395 567.04H481.335L481.435 568.8V572H479.455ZM483.795 566.6C484.315 566.6 484.782 566.46 485.195 566.18C485.609 565.9 485.935 565.493 486.175 564.96C486.415 564.413 486.535 563.753 486.535 562.98C486.535 562.3 486.442 561.713 486.255 561.22C486.082 560.713 485.815 560.327 485.455 560.06C485.095 559.78 484.615 559.64 484.015 559.64C483.615 559.64 483.195 559.747 482.755 559.96C482.315 560.16 481.875 560.493 481.435 560.96V565.58C481.849 565.94 482.269 566.2 482.695 566.36C483.122 566.52 483.489 566.6 483.795 566.6ZM507.8 568V559.82H503.42V558.22H509.78V568H507.8ZM508.62 556.32C508.193 556.32 507.84 556.193 507.56 555.94C507.28 555.673 507.14 555.327 507.14 554.9C507.14 554.473 507.28 554.133 507.56 553.88C507.84 553.613 508.193 553.48 508.62 553.48C509.046 553.48 509.4 553.613 509.68 553.88C509.96 554.133 510.1 554.473 510.1 554.9C510.1 555.327 509.96 555.673 509.68 555.94C509.4 556.193 509.046 556.32 508.62 556.32ZM521.532 568.24C520.545 568.24 519.765 568.067 519.192 567.72C518.632 567.373 518.232 566.893 517.992 566.28C517.752 565.667 517.632 564.953 517.632 564.14V559.82H514.952V558.34L517.712 558.22L517.972 555.14H519.612V558.22H524.232V559.82H519.612V564.14C519.612 564.687 519.685 565.153 519.832 565.54C519.979 565.913 520.225 566.193 520.572 566.38C520.919 566.553 521.385 566.64 521.972 566.64C522.412 566.64 522.812 566.607 523.172 566.54C523.532 566.46 523.879 566.36 524.212 566.24L524.612 567.68C524.172 567.827 523.699 567.953 523.192 568.06C522.699 568.18 522.145 568.24 521.532 568.24ZM539.796 568L537.796 558.22H539.756L540.756 563.6C540.85 564.053 540.93 564.507 540.996 564.96C541.063 565.413 541.123 565.873 541.176 566.34H541.256C541.323 565.873 541.403 565.413 541.496 564.96C541.59 564.507 541.683 564.053 541.776 563.6L542.836 559.02H544.596L545.636 563.6C545.73 564.053 545.83 564.507 545.936 564.96C546.056 565.413 546.143 565.873 546.196 566.34H546.276C546.356 565.873 546.423 565.413 546.476 564.96C546.53 564.507 546.596 564.053 546.676 563.6L547.676 558.22H549.516L547.576 568H545.116L544.156 563.72C544.076 563.36 543.996 562.94 543.916 562.46C543.85 561.98 543.776 561.44 543.696 560.84H543.616C543.55 561.4 543.476 561.92 543.396 562.4C543.33 562.867 543.256 563.307 543.176 563.72L542.236 568H539.796ZM555.648 568.24C554.795 568.24 553.995 568.04 553.248 567.64C552.515 567.24 551.915 566.66 551.448 565.9C550.995 565.127 550.768 564.2 550.768 563.12C550.768 562.04 550.995 561.12 551.448 560.36C551.915 559.587 552.515 559 553.248 558.6C553.995 558.187 554.795 557.98 555.648 557.98C556.502 557.98 557.295 558.187 558.028 558.6C558.775 559 559.375 559.587 559.828 560.36C560.295 561.12 560.528 562.04 560.528 563.12C560.528 564.2 560.295 565.127 559.828 565.9C559.375 566.66 558.775 567.24 558.028 567.64C557.295 568.04 556.502 568.24 555.648 568.24ZM555.648 566.62C556.222 566.62 556.722 566.473 557.148 566.18C557.575 565.887 557.902 565.48 558.128 564.96C558.368 564.44 558.488 563.827 558.488 563.12C558.488 562.427 558.368 561.82 558.128 561.3C557.902 560.767 557.575 560.353 557.148 560.06C556.722 559.767 556.222 559.62 555.648 559.62C555.075 559.62 554.575 559.767 554.148 560.06C553.722 560.353 553.388 560.767 553.148 561.3C552.922 561.82 552.808 562.427 552.808 563.12C552.808 563.827 552.922 564.44 553.148 564.96C553.388 565.48 553.722 565.887 554.148 566.18C554.575 566.473 555.075 566.62 555.648 566.62ZM564.401 568V558.22H566.041L566.201 560.5H566.261C566.767 559.7 567.387 559.08 568.121 558.64C568.854 558.2 569.654 557.98 570.521 557.98C570.894 557.98 571.234 558.013 571.541 558.08C571.847 558.147 572.147 558.247 572.441 558.38L572.001 560.08C571.667 559.96 571.381 559.88 571.141 559.84C570.901 559.787 570.594 559.76 570.221 559.76C569.514 559.76 568.834 559.96 568.181 560.36C567.527 560.76 566.927 561.453 566.381 562.44V568H564.401ZM575.593 568V553.82H577.573V563.06H577.653L582.473 558.22H584.693L577.573 565.4V568H575.593ZM582.993 568L579.413 563L580.593 561.74L585.173 568H582.993ZM591.745 568.24C590.825 568.24 589.945 568.087 589.105 567.78C588.265 567.473 587.552 567.12 586.965 566.72L587.845 565.44C588.418 565.84 589.038 566.153 589.705 566.38C590.385 566.607 591.152 566.72 592.005 566.72C592.752 566.72 593.305 566.587 593.665 566.32C594.038 566.053 594.225 565.74 594.225 565.38C594.225 565.207 594.185 565.047 594.105 564.9C594.038 564.753 593.905 564.62 593.705 564.5C593.518 564.367 593.232 564.24 592.845 564.12C592.472 564 591.978 563.873 591.365 563.74C590.072 563.473 589.112 563.107 588.485 562.64C587.872 562.173 587.565 561.573 587.565 560.84C587.565 560.013 587.918 559.333 588.625 558.8C589.345 558.253 590.385 557.98 591.745 557.98C592.518 557.98 593.252 558.113 593.945 558.38C594.652 558.633 595.252 558.927 595.745 559.26L594.825 560.5C594.358 560.193 593.845 559.953 593.285 559.78C592.738 559.593 592.165 559.5 591.565 559.5C591.072 559.5 590.678 559.56 590.385 559.68C590.092 559.787 589.878 559.933 589.745 560.12C589.612 560.307 589.545 560.513 589.545 560.74C589.545 561.113 589.752 561.407 590.165 561.62C590.592 561.82 591.278 562.02 592.225 562.22C593.292 562.447 594.112 562.7 594.685 562.98C595.272 563.26 595.672 563.587 595.885 563.96C596.112 564.32 596.225 564.753 596.225 565.26C596.225 565.807 596.052 566.307 595.705 566.76C595.358 567.213 594.852 567.573 594.185 567.84C593.532 568.107 592.718 568.24 591.745 568.24ZM602.337 563.24C602.244 562.68 602.284 562.187 602.457 561.76C602.631 561.333 602.871 560.96 603.177 560.64C603.497 560.307 603.824 559.993 604.157 559.7C604.504 559.407 604.791 559.107 605.017 558.8C605.244 558.48 605.357 558.127 605.357 557.74C605.357 557.233 605.184 556.813 604.837 556.48C604.491 556.147 603.991 555.98 603.337 555.98C602.857 555.98 602.411 556.08 601.997 556.28C601.597 556.48 601.224 556.747 600.877 557.08L599.737 556.04C600.204 555.547 600.751 555.147 601.377 554.84C602.004 554.52 602.704 554.36 603.477 554.36C604.224 554.36 604.884 554.487 605.457 554.74C606.031 554.993 606.477 555.36 606.797 555.84C607.117 556.307 607.277 556.867 607.277 557.52C607.277 558.053 607.157 558.52 606.917 558.92C606.691 559.307 606.404 559.66 606.057 559.98C605.724 560.3 605.391 560.613 605.057 560.92C604.737 561.213 604.477 561.547 604.277 561.92C604.077 562.293 604.011 562.733 604.077 563.24H602.337ZM603.337 568.24C602.897 568.24 602.517 568.087 602.197 567.78C601.891 567.473 601.737 567.067 601.737 566.56C601.737 566.053 601.891 565.653 602.197 565.36C602.517 565.053 602.897 564.9 603.337 564.9C603.791 564.9 604.171 565.053 604.477 565.36C604.784 565.653 604.937 566.053 604.937 566.56C604.937 567.067 604.784 567.473 604.477 567.78C604.171 568.087 603.791 568.24 603.337 568.24Z" fill="black"/>
<rect x="1" y="583" width="1239" height="49" fill="#F2F2F2" stroke="black" stroke-width="2"/>
<mask id="path-4-inside-1_467_24" fill="white">
<path d="M636 84H1241V582H636V84Z"/>
</mask>
<path d="M636 84H1241V582H636V84Z" fill="#FBDBDA"/>
<path d="M1239 84V582H1243V84H1239ZM638 582V84H634V582H638Z" fill="black" mask="url(#path-4-inside-1_467_24)"/>
<mask id="path-6-inside-2_467_24" fill="white">
<path d="M0 84H636V122H0V84Z"/>
</mask>
<path d="M0 84H636V122H0V84Z" fill="#F2F2F2"/>
<path d="M2 122V84H-2V122H2Z" fill="black" mask="url(#path-6-inside-2_467_24)"/>
<mask id="path-8-inside-3_467_24" fill="white">
<path d="M0 122H636V160H0V122Z"/>
</mask>
<path d="M0 122H636V160H0V122Z" fill="white"/>
<path d="M2 160V122H-2V160H2Z" fill="black" mask="url(#path-8-inside-3_467_24)"/>
<mask id="path-10-inside-4_467_24" fill="white">
<path d="M0 160H636V198H0V160Z"/>
</mask>
<path d="M0 160H636V198H0V160Z" fill="#F2F2F2"/>
<path d="M2 198V160H-2V198H2Z" fill="black" mask="url(#path-10-inside-4_467_24)"/>
<mask id="path-12-inside-5_467_24" fill="white">
<path d="M0 198H636V236H0V198Z"/>
</mask>
<path d="M0 198H636V236H0V198Z" fill="white"/>
<path d="M2 236V198H-2V236H2Z" fill="black" mask="url(#path-12-inside-5_467_24)"/>
<mask id="path-14-inside-6_467_24" fill="white">
<path d="M0 236H636V274H0V236Z"/>
</mask>
<path d="M0 236H636V274H0V236Z" fill="#F2F2F2"/>
<path d="M2 274V236H-2V274H2Z" fill="black" mask="url(#path-14-inside-6_467_24)"/>
<mask id="path-16-inside-7_467_24" fill="white">
<path d="M0 274H636V312H0V274Z"/>
</mask>
<path d="M0 274H636V312H0V274Z" fill="white"/>
<path d="M2 312V274H-2V312H2Z" fill="black" mask="url(#path-16-inside-7_467_24)"/>
<mask id="path-18-inside-8_467_24" fill="white">
<path d="M0 311H636V349H0V311Z"/>
</mask>
<path d="M0 311H636V349H0V311Z" fill="#F2F2F2"/>
<path d="M2 349V311H-2V349H2Z" fill="black" mask="url(#path-18-inside-8_467_24)"/>
<mask id="path-20-inside-9_467_24" fill="white">
<path d="M0 349H636V387H0V349Z"/>
</mask>
<path d="M0 349H636V387H0V349Z" fill="white"/>
<path d="M2 387V349H-2V387H2Z" fill="black" mask="url(#path-20-inside-9_467_24)"/>
<mask id="path-22-inside-10_467_24" fill="white">
<path d="M0 387H636V425H0V387Z"/>
</mask>
<path d="M0 387H636V425H0V387Z" fill="#F2F2F2"/>
<path d="M2 425V387H-2V425H2Z" fill="black" mask="url(#path-22-inside-10_467_24)"/>
<mask id="path-24-inside-11_467_24" fill="white">
<path d="M0 425H636V463H0V425Z"/>
</mask>
<path d="M0 425H636V463H0V425Z" fill="white"/>
<path d="M2 463V425H-2V463H2Z" fill="black" mask="url(#path-24-inside-11_467_24)"/>
<mask id="path-26-inside-12_467_24" fill="white">
<path d="M0 463H636V501H0V463Z"/>
</mask>
<path d="M0 463H636V501H0V463Z" fill="#F2F2F2"/>
<path d="M2 501V463H-2V501H2Z" fill="black" mask="url(#path-26-inside-12_467_24)"/>
<mask id="path-28-inside-13_467_24" fill="white">
<path d="M0 501H636V539H0V501Z"/>
</mask>
<path d="M0 501H636V539H0V501Z" fill="white"/>
<path d="M2 539V501H-2V539H2Z" fill="black" mask="url(#path-28-inside-13_467_24)"/>
<path d="M53.6 24.08V53H48.2V40.36H34.62V53H29.22V24.08H34.62V36.52H48.2V24.08H53.6ZM71.8553 40.38C71.8553 39.74 71.762 39.14 71.5753 38.58C71.402 38.0067 71.1353 37.5067 70.7753 37.08C70.4153 36.6533 69.9553 36.32 69.3953 36.08C68.8486 35.8267 68.2086 35.7 67.4753 35.7C66.0486 35.7 64.922 36.1067 64.0953 36.92C63.282 37.7333 62.762 38.8867 62.5353 40.38H71.8553ZM62.4353 43.36C62.5153 44.4133 62.702 45.3267 62.9953 46.1C63.2886 46.86 63.6753 47.4933 64.1553 48C64.6353 48.4933 65.202 48.8667 65.8553 49.12C66.522 49.36 67.2553 49.48 68.0553 49.48C68.8553 49.48 69.542 49.3867 70.1153 49.2C70.702 49.0133 71.2086 48.8067 71.6353 48.58C72.0753 48.3533 72.4553 48.1467 72.7753 47.96C73.1086 47.7733 73.4286 47.68 73.7353 47.68C74.1486 47.68 74.4553 47.8333 74.6553 48.14L76.0753 49.94C75.5286 50.58 74.9153 51.12 74.2353 51.56C73.5553 51.9867 72.842 52.3333 72.0953 52.6C71.362 52.8533 70.6086 53.0333 69.8353 53.14C69.0753 53.2467 68.3353 53.3 67.6153 53.3C66.1886 53.3 64.862 53.0667 63.6353 52.6C62.4086 52.12 61.342 51.42 60.4353 50.5C59.5286 49.5667 58.8153 48.42 58.2953 47.06C57.7753 45.6867 57.5153 44.1 57.5153 42.3C57.5153 40.9 57.742 39.5867 58.1953 38.36C58.6486 37.12 59.2953 36.0467 60.1353 35.14C60.9886 34.22 62.022 33.4933 63.2353 32.96C64.462 32.4267 65.842 32.16 67.3753 32.16C68.6686 32.16 69.862 32.3667 70.9553 32.78C72.0486 33.1933 72.9886 33.8 73.7753 34.6C74.562 35.3867 75.1753 36.36 75.6153 37.52C76.0686 38.6667 76.2953 39.98 76.2953 41.46C76.2953 42.2067 76.2153 42.7133 76.0553 42.98C75.8953 43.2333 75.5886 43.36 75.1353 43.36H62.4353ZM90.8425 44.24C89.4158 44.3067 88.2158 44.4333 87.2425 44.62C86.2692 44.7933 85.4892 45.02 84.9025 45.3C84.3158 45.58 83.8958 45.9067 83.6425 46.28C83.3892 46.6533 83.2625 47.06 83.2625 47.5C83.2625 48.3667 83.5158 48.9867 84.0225 49.36C84.5425 49.7333 85.2158 49.92 86.0425 49.92C87.0558 49.92 87.9292 49.74 88.6625 49.38C89.4092 49.0067 90.1358 48.4467 90.8425 47.7V44.24ZM79.5225 35.34C81.8825 33.18 84.7225 32.1 88.0425 32.1C89.2425 32.1 90.3158 32.3 91.2625 32.7C92.2092 33.0867 93.0092 33.6333 93.6625 34.34C94.3158 35.0333 94.8092 35.8667 95.1425 36.84C95.4892 37.8133 95.6625 38.88 95.6625 40.04V53H93.4225C92.9558 53 92.5958 52.9333 92.3425 52.8C92.0892 52.6533 91.8892 52.3667 91.7425 51.94L91.3025 50.46C90.7825 50.9267 90.2758 51.34 89.7825 51.7C89.2892 52.0467 88.7758 52.34 88.2425 52.58C87.7092 52.82 87.1358 53 86.5225 53.12C85.9225 53.2533 85.2558 53.32 84.5225 53.32C83.6558 53.32 82.8558 53.2067 82.1225 52.98C81.3892 52.74 80.7558 52.3867 80.2225 51.92C79.6892 51.4533 79.2758 50.8733 78.9825 50.18C78.6892 49.4867 78.5425 48.68 78.5425 47.76C78.5425 47.24 78.6292 46.7267 78.8025 46.22C78.9758 45.7 79.2558 45.2067 79.6425 44.74C80.0425 44.2733 80.5558 43.8333 81.1825 43.42C81.8092 43.0067 82.5758 42.6467 83.4825 42.34C84.4025 42.0333 85.4692 41.7867 86.6825 41.6C87.8958 41.4 89.2825 41.28 90.8425 41.24V40.04C90.8425 38.6667 90.5492 37.6533 89.9625 37C89.3758 36.3333 88.5292 36 87.4225 36C86.6225 36 85.9558 36.0933 85.4225 36.28C84.9025 36.4667 84.4425 36.68 84.0425 36.92C83.6425 37.1467 83.2758 37.3533 82.9425 37.54C82.6225 37.7267 82.2625 37.82 81.8625 37.82C81.5158 37.82 81.2225 37.7333 80.9825 37.56C80.7425 37.3733 80.5492 37.16 80.4025 36.92L79.5225 35.34ZM105.255 47.68C105.815 48.36 106.422 48.84 107.075 49.12C107.742 49.4 108.462 49.54 109.235 49.54C109.982 49.54 110.655 49.4 111.255 49.12C111.855 48.84 112.362 48.4133 112.775 47.84C113.202 47.2667 113.528 46.5467 113.755 45.68C113.982 44.8 114.095 43.7667 114.095 42.58C114.095 41.38 113.995 40.3667 113.795 39.54C113.608 38.7 113.335 38.02 112.975 37.5C112.615 36.98 112.175 36.6 111.655 36.36C111.148 36.12 110.568 36 109.915 36C108.888 36 108.015 36.22 107.295 36.66C106.575 37.0867 105.895 37.6933 105.255 38.48V47.68ZM104.995 35.28C105.835 34.3333 106.788 33.5667 107.855 32.98C108.922 32.3933 110.175 32.1 111.615 32.1C112.735 32.1 113.755 32.3333 114.675 32.8C115.608 33.2667 116.408 33.9467 117.075 34.84C117.755 35.72 118.275 36.8133 118.635 38.12C119.008 39.4133 119.195 40.9 119.195 42.58C119.195 44.1133 118.988 45.5333 118.575 46.84C118.162 48.1467 117.568 49.28 116.795 50.24C116.035 51.2 115.108 51.9533 114.015 52.5C112.935 53.0333 111.722 53.3 110.375 53.3C109.228 53.3 108.248 53.1267 107.435 52.78C106.622 52.42 105.895 51.9267 105.255 51.3V59.7H100.315V32.48H103.335C103.975 32.48 104.395 32.78 104.595 33.38L104.995 35.28ZM148.956 29.34C148.796 29.62 148.623 29.8267 148.436 29.96C148.263 30.08 148.043 30.14 147.776 30.14C147.496 30.14 147.189 30.04 146.856 29.84C146.536 29.6267 146.149 29.3933 145.696 29.14C145.243 28.8867 144.709 28.66 144.096 28.46C143.496 28.2467 142.783 28.14 141.956 28.14C141.209 28.14 140.556 28.2333 139.996 28.42C139.436 28.5933 138.963 28.84 138.576 29.16C138.203 29.48 137.923 29.8667 137.736 30.32C137.549 30.76 137.456 31.2467 137.456 31.78C137.456 32.46 137.643 33.0267 138.016 33.48C138.403 33.9333 138.909 34.32 139.536 34.64C140.163 34.96 140.876 35.2467 141.676 35.5C142.476 35.7533 143.296 36.0267 144.136 36.32C144.976 36.6 145.796 36.9333 146.596 37.32C147.396 37.6933 148.109 38.1733 148.736 38.76C149.363 39.3333 149.863 40.04 150.236 40.88C150.623 41.72 150.816 42.74 150.816 43.94C150.816 45.2467 150.589 46.4733 150.136 47.62C149.696 48.7533 149.043 49.7467 148.176 50.6C147.323 51.44 146.276 52.1067 145.036 52.6C143.796 53.08 142.376 53.32 140.776 53.32C139.856 53.32 138.949 53.2267 138.056 53.04C137.163 52.8667 136.303 52.6133 135.476 52.28C134.663 51.9467 133.896 51.5467 133.176 51.08C132.456 50.6133 131.816 50.0933 131.256 49.52L132.836 46.94C132.969 46.7533 133.143 46.6 133.356 46.48C133.569 46.3467 133.796 46.28 134.036 46.28C134.369 46.28 134.729 46.42 135.116 46.7C135.503 46.9667 135.963 47.2667 136.496 47.6C137.029 47.9333 137.649 48.24 138.356 48.52C139.076 48.7867 139.936 48.92 140.936 48.92C142.469 48.92 143.656 48.56 144.496 47.84C145.336 47.1067 145.756 46.06 145.756 44.7C145.756 43.94 145.563 43.32 145.176 42.84C144.803 42.36 144.303 41.96 143.676 41.64C143.049 41.3067 142.336 41.0267 141.536 40.8C140.736 40.5733 139.923 40.3267 139.096 40.06C138.269 39.7933 137.456 39.4733 136.656 39.1C135.856 38.7267 135.143 38.24 134.516 37.64C133.889 37.04 133.383 36.2933 132.996 35.4C132.623 34.4933 132.436 33.38 132.436 32.06C132.436 31.0067 132.643 29.98 133.056 28.98C133.483 27.98 134.096 27.0933 134.896 26.32C135.696 25.5467 136.683 24.9267 137.856 24.46C139.029 23.9933 140.376 23.76 141.896 23.76C143.603 23.76 145.176 24.0267 146.616 24.56C148.056 25.0933 149.283 25.84 150.296 26.8L148.956 29.34ZM163.731 32.16C165.251 32.16 166.631 32.4067 167.871 32.9C169.124 33.3933 170.191 34.0933 171.071 35C171.964 35.9067 172.651 37.0133 173.131 38.32C173.611 39.6267 173.851 41.0867 173.851 42.7C173.851 44.3267 173.611 45.7933 173.131 47.1C172.651 48.4067 171.964 49.52 171.071 50.44C170.191 51.36 169.124 52.0667 167.871 52.56C166.631 53.0533 165.251 53.3 163.731 53.3C162.198 53.3 160.804 53.0533 159.551 52.56C158.298 52.0667 157.224 51.36 156.331 50.44C155.451 49.52 154.764 48.4067 154.271 47.1C153.791 45.7933 153.551 44.3267 153.551 42.7C153.551 41.0867 153.791 39.6267 154.271 38.32C154.764 37.0133 155.451 35.9067 156.331 35C157.224 34.0933 158.298 33.3933 159.551 32.9C160.804 32.4067 162.198 32.16 163.731 32.16ZM163.731 49.5C165.438 49.5 166.698 48.9267 167.511 47.78C168.338 46.6333 168.751 44.9533 168.751 42.74C168.751 40.5267 168.338 38.84 167.511 37.68C166.698 36.52 165.438 35.94 163.731 35.94C161.998 35.94 160.711 36.5267 159.871 37.7C159.044 38.86 158.631 40.54 158.631 42.74C158.631 44.94 159.044 46.62 159.871 47.78C160.711 48.9267 161.998 49.5 163.731 49.5ZM182.28 36.04C182.92 34.8133 183.68 33.8533 184.56 33.16C185.44 32.4533 186.48 32.1 187.68 32.1C188.626 32.1 189.386 32.3067 189.96 32.72L189.64 36.42C189.573 36.66 189.473 36.8333 189.34 36.94C189.22 37.0333 189.053 37.08 188.84 37.08C188.64 37.08 188.34 37.0467 187.94 36.98C187.553 36.9133 187.173 36.88 186.8 36.88C186.253 36.88 185.766 36.96 185.34 37.12C184.913 37.28 184.526 37.5133 184.18 37.82C183.846 38.1133 183.546 38.4733 183.28 38.9C183.026 39.3267 182.786 39.8133 182.56 40.36V53H177.62V32.48H180.52C181.026 32.48 181.38 32.5733 181.58 32.76C181.78 32.9333 181.913 33.2533 181.98 33.72L182.28 36.04ZM199.382 53.32C197.595 53.32 196.222 52.82 195.262 51.82C194.315 50.8067 193.842 49.4133 193.842 47.64V36.18H191.742C191.475 36.18 191.248 36.0933 191.062 35.92C190.875 35.7467 190.782 35.4867 190.782 35.14V33.18L194.082 32.64L195.122 27.04C195.188 26.7733 195.315 26.5667 195.502 26.42C195.688 26.2733 195.928 26.2 196.222 26.2H198.782V32.66H204.262V36.18H198.782V47.3C198.782 47.94 198.935 48.44 199.242 48.8C199.562 49.16 199.995 49.34 200.542 49.34C200.848 49.34 201.102 49.3067 201.302 49.24C201.515 49.16 201.695 49.08 201.842 49C202.002 48.92 202.142 48.8467 202.262 48.78C202.382 48.7 202.502 48.66 202.622 48.66C202.768 48.66 202.888 48.7 202.982 48.78C203.075 48.8467 203.175 48.9533 203.282 49.1L204.762 51.5C204.042 52.1 203.215 52.5533 202.282 52.86C201.348 53.1667 200.382 53.32 199.382 53.32ZM227.331 38.62C228.318 38.62 229.178 38.5 229.911 38.26C230.644 38.0067 231.251 37.6533 231.731 37.2C232.224 36.7333 232.591 36.1733 232.831 35.52C233.071 34.8533 233.191 34.1133 233.191 33.3C233.191 32.5267 233.071 31.8267 232.831 31.2C232.591 30.5733 232.231 30.04 231.751 29.6C231.271 29.16 230.664 28.8267 229.931 28.6C229.198 28.36 228.331 28.24 227.331 28.24H223.311V38.62H227.331ZM227.331 24.08C229.264 24.08 230.938 24.3067 232.351 24.76C233.764 25.2133 234.931 25.8467 235.851 26.66C236.771 27.4733 237.451 28.4467 237.891 29.58C238.344 30.7133 238.571 31.9533 238.571 33.3C238.571 34.7 238.338 35.9867 237.871 37.16C237.404 38.32 236.704 39.32 235.771 40.16C234.838 41 233.664 41.6533 232.251 42.12C230.851 42.5867 229.211 42.82 227.331 42.82H223.311V53H217.931V24.08H227.331ZM246.264 36.04C246.904 34.8133 247.664 33.8533 248.544 33.16C249.424 32.4533 250.464 32.1 251.664 32.1C252.611 32.1 253.371 32.3067 253.944 32.72L253.624 36.42C253.557 36.66 253.457 36.8333 253.324 36.94C253.204 37.0333 253.037 37.08 252.824 37.08C252.624 37.08 252.324 37.0467 251.924 36.98C251.537 36.9133 251.157 36.88 250.784 36.88C250.237 36.88 249.751 36.96 249.324 37.12C248.897 37.28 248.511 37.5133 248.164 37.82C247.831 38.1133 247.531 38.4733 247.264 38.9C247.011 39.3267 246.771 39.8133 246.544 40.36V53H241.604V32.48H244.504C245.011 32.48 245.364 32.5733 245.564 32.76C245.764 32.9333 245.897 33.2533 245.964 33.72L246.264 36.04ZM267.093 44.24C265.666 44.3067 264.466 44.4333 263.493 44.62C262.519 44.7933 261.739 45.02 261.153 45.3C260.566 45.58 260.146 45.9067 259.893 46.28C259.639 46.6533 259.513 47.06 259.513 47.5C259.513 48.3667 259.766 48.9867 260.273 49.36C260.793 49.7333 261.466 49.92 262.293 49.92C263.306 49.92 264.179 49.74 264.913 49.38C265.659 49.0067 266.386 48.4467 267.093 47.7V44.24ZM255.773 35.34C258.133 33.18 260.973 32.1 264.293 32.1C265.493 32.1 266.566 32.3 267.513 32.7C268.459 33.0867 269.259 33.6333 269.913 34.34C270.566 35.0333 271.059 35.8667 271.393 36.84C271.739 37.8133 271.913 38.88 271.913 40.04V53H269.673C269.206 53 268.846 52.9333 268.593 52.8C268.339 52.6533 268.139 52.3667 267.993 51.94L267.553 50.46C267.033 50.9267 266.526 51.34 266.033 51.7C265.539 52.0467 265.026 52.34 264.493 52.58C263.959 52.82 263.386 53 262.773 53.12C262.173 53.2533 261.506 53.32 260.773 53.32C259.906 53.32 259.106 53.2067 258.373 52.98C257.639 52.74 257.006 52.3867 256.473 51.92C255.939 51.4533 255.526 50.8733 255.233 50.18C254.939 49.4867 254.793 48.68 254.793 47.76C254.793 47.24 254.879 46.7267 255.053 46.22C255.226 45.7 255.506 45.2067 255.893 44.74C256.293 44.2733 256.806 43.8333 257.433 43.42C258.059 43.0067 258.826 42.6467 259.733 42.34C260.653 42.0333 261.719 41.7867 262.933 41.6C264.146 41.4 265.533 41.28 267.093 41.24V40.04C267.093 38.6667 266.799 37.6533 266.213 37C265.626 36.3333 264.779 36 263.673 36C262.873 36 262.206 36.0933 261.673 36.28C261.153 36.4667 260.693 36.68 260.293 36.92C259.893 37.1467 259.526 37.3533 259.193 37.54C258.873 37.7267 258.513 37.82 258.113 37.82C257.766 37.82 257.473 37.7333 257.233 37.56C256.993 37.3733 256.799 37.16 256.653 36.92L255.773 35.34ZM291.265 36.82C291.118 37.0067 290.972 37.1533 290.825 37.26C290.692 37.3667 290.492 37.42 290.225 37.42C289.972 37.42 289.725 37.3467 289.485 37.2C289.245 37.04 288.958 36.8667 288.625 36.68C288.292 36.48 287.892 36.3067 287.425 36.16C286.972 36 286.405 35.92 285.725 35.92C284.858 35.92 284.098 36.08 283.445 36.4C282.792 36.7067 282.245 37.1533 281.805 37.74C281.378 38.3267 281.058 39.04 280.845 39.88C280.632 40.7067 280.525 41.6467 280.525 42.7C280.525 43.7933 280.638 44.7667 280.865 45.62C281.105 46.4733 281.445 47.1933 281.885 47.78C282.325 48.3533 282.858 48.7933 283.485 49.1C284.112 49.3933 284.818 49.54 285.605 49.54C286.392 49.54 287.025 49.4467 287.505 49.26C287.998 49.06 288.412 48.8467 288.745 48.62C289.078 48.38 289.365 48.1667 289.605 47.98C289.858 47.78 290.138 47.68 290.445 47.68C290.845 47.68 291.145 47.8333 291.345 48.14L292.765 49.94C292.218 50.58 291.625 51.12 290.985 51.56C290.345 51.9867 289.678 52.3333 288.985 52.6C288.305 52.8533 287.598 53.0333 286.865 53.14C286.145 53.2467 285.425 53.3 284.705 53.3C283.438 53.3 282.245 53.0667 281.125 52.6C280.005 52.12 279.025 51.4267 278.185 50.52C277.345 49.6133 276.678 48.5067 276.185 47.2C275.705 45.88 275.465 44.38 275.465 42.7C275.465 41.1933 275.678 39.8 276.105 38.52C276.545 37.2267 277.185 36.1133 278.025 35.18C278.865 34.2333 279.905 33.4933 281.145 32.96C282.385 32.4267 283.812 32.16 285.425 32.16C286.958 32.16 288.298 32.4067 289.445 32.9C290.605 33.3933 291.645 34.1 292.565 35.02L291.265 36.82ZM316.562 53H311.622V36.18H302.102V47.3C302.102 47.94 302.255 48.44 302.562 48.8C302.882 49.16 303.315 49.34 303.862 49.34C304.169 49.34 304.422 49.3067 304.622 49.24C304.835 49.16 305.015 49.08 305.162 49C305.322 48.92 305.462 48.8467 305.582 48.78C305.702 48.7 305.822 48.66 305.942 48.66C306.089 48.66 306.209 48.7 306.302 48.78C306.395 48.8467 306.495 48.9533 306.602 49.1L308.082 51.5C307.362 52.1 306.535 52.5533 305.602 52.86C304.669 53.1667 303.702 53.32 302.702 53.32C300.915 53.32 299.542 52.82 298.582 51.82C297.635 50.8067 297.162 49.4133 297.162 47.64V36.18H295.062C294.795 36.18 294.569 36.0933 294.382 35.92C294.195 35.7467 294.102 35.4867 294.102 35.14V33.18L297.402 32.62L298.442 27.04C298.509 26.7733 298.635 26.5667 298.822 26.42C299.009 26.2733 299.249 26.2 299.542 26.2H302.102V32.66H316.562V53ZM317.422 26.42C317.422 26.8467 317.335 27.2533 317.162 27.64C316.989 28.0133 316.755 28.34 316.462 28.62C316.182 28.9 315.842 29.1267 315.442 29.3C315.055 29.46 314.642 29.54 314.202 29.54C313.775 29.54 313.375 29.46 313.002 29.3C312.629 29.1267 312.302 28.9 312.022 28.62C311.742 28.34 311.515 28.0133 311.342 27.64C311.182 27.2533 311.102 26.8467 311.102 26.42C311.102 25.98 311.182 25.5733 311.342 25.2C311.515 24.8133 311.742 24.48 312.022 24.2C312.302 23.9067 312.629 23.68 313.002 23.52C313.375 23.3467 313.775 23.26 314.202 23.26C314.642 23.26 315.055 23.3467 315.442 23.52C315.842 23.68 316.182 23.9067 316.462 24.2C316.755 24.48 316.989 24.8133 317.162 25.2C317.335 25.5733 317.422 25.98 317.422 26.42ZM336.304 36.82C336.157 37.0067 336.011 37.1533 335.864 37.26C335.731 37.3667 335.531 37.42 335.264 37.42C335.011 37.42 334.764 37.3467 334.524 37.2C334.284 37.04 333.997 36.8667 333.664 36.68C333.331 36.48 332.931 36.3067 332.464 36.16C332.011 36 331.444 35.92 330.764 35.92C329.897 35.92 329.137 36.08 328.484 36.4C327.831 36.7067 327.284 37.1533 326.844 37.74C326.417 38.3267 326.097 39.04 325.884 39.88C325.671 40.7067 325.564 41.6467 325.564 42.7C325.564 43.7933 325.677 44.7667 325.904 45.62C326.144 46.4733 326.484 47.1933 326.924 47.78C327.364 48.3533 327.897 48.7933 328.524 49.1C329.151 49.3933 329.857 49.54 330.644 49.54C331.431 49.54 332.064 49.4467 332.544 49.26C333.037 49.06 333.451 48.8467 333.784 48.62C334.117 48.38 334.404 48.1667 334.644 47.98C334.897 47.78 335.177 47.68 335.484 47.68C335.884 47.68 336.184 47.8333 336.384 48.14L337.804 49.94C337.257 50.58 336.664 51.12 336.024 51.56C335.384 51.9867 334.717 52.3333 334.024 52.6C333.344 52.8533 332.637 53.0333 331.904 53.14C331.184 53.2467 330.464 53.3 329.744 53.3C328.477 53.3 327.284 53.0667 326.164 52.6C325.044 52.12 324.064 51.4267 323.224 50.52C322.384 49.6133 321.717 48.5067 321.224 47.2C320.744 45.88 320.504 44.38 320.504 42.7C320.504 41.1933 320.717 39.8 321.144 38.52C321.584 37.2267 322.224 36.1133 323.064 35.18C323.904 34.2333 324.944 33.4933 326.184 32.96C327.424 32.4267 328.851 32.16 330.464 32.16C331.997 32.16 333.337 32.4067 334.484 32.9C335.644 33.3933 336.684 34.1 337.604 35.02L336.304 36.82ZM353.769 40.38C353.769 39.74 353.676 39.14 353.489 38.58C353.316 38.0067 353.049 37.5067 352.689 37.08C352.329 36.6533 351.869 36.32 351.309 36.08C350.763 35.8267 350.123 35.7 349.389 35.7C347.963 35.7 346.836 36.1067 346.009 36.92C345.196 37.7333 344.676 38.8867 344.449 40.38H353.769ZM344.349 43.36C344.429 44.4133 344.616 45.3267 344.909 46.1C345.203 46.86 345.589 47.4933 346.069 48C346.549 48.4933 347.116 48.8667 347.769 49.12C348.436 49.36 349.169 49.48 349.969 49.48C350.769 49.48 351.456 49.3867 352.029 49.2C352.616 49.0133 353.123 48.8067 353.549 48.58C353.989 48.3533 354.369 48.1467 354.689 47.96C355.023 47.7733 355.343 47.68 355.649 47.68C356.063 47.68 356.369 47.8333 356.569 48.14L357.989 49.94C357.443 50.58 356.829 51.12 356.149 51.56C355.469 51.9867 354.756 52.3333 354.009 52.6C353.276 52.8533 352.523 53.0333 351.749 53.14C350.989 53.2467 350.249 53.3 349.529 53.3C348.103 53.3 346.776 53.0667 345.549 52.6C344.323 52.12 343.256 51.42 342.349 50.5C341.443 49.5667 340.729 48.42 340.209 47.06C339.689 45.6867 339.429 44.1 339.429 42.3C339.429 40.9 339.656 39.5867 340.109 38.36C340.563 37.12 341.209 36.0467 342.049 35.14C342.903 34.22 343.936 33.4933 345.149 32.96C346.376 32.4267 347.756 32.16 349.289 32.16C350.583 32.16 351.776 32.3667 352.869 32.78C353.963 33.1933 354.903 33.8 355.689 34.6C356.476 35.3867 357.089 36.36 357.529 37.52C357.983 38.6667 358.209 39.98 358.209 41.46C358.209 42.2067 358.129 42.7133 357.969 42.98C357.809 43.2333 357.503 43.36 357.049 43.36H344.349Z" fill="black"/>
</svg>
