<svg width="138" height="140" viewBox="0 0 138 140" fill="none" xmlns="http://www.w3.org/2000/svg">
<path fill-rule="evenodd" clip-rule="evenodd" d="M121.18 19.0862L115.971 25.2128L111.564 30.3464L107.814 34.6766L104.606 38.3514L101.848 41.4878L99.4676 44.1786L97.4058 46.4981L95.6146 48.5065L94.0547 50.2523L92.694 51.7754L91.5059 53.1086L90.4685 54.2788L89.5632 55.3086L88.7751 56.2165L88.0912 57.0183L87.5009 57.7271L86.9955 58.3541L86.5675 58.9087L86.2109 59.3988L85.9207 59.8312L85.693 60.2116L85.5247 60.5449L85.4135 60.8352L85.3579 61.086L85.357 61.3001L85.4108 61.4801L85.5197 61.6278L85.6849 61.7449L85.9083 61.8325L86.1926 61.8915L86.5412 61.9224L86.9585 61.9255L87.4499 61.9005L88.0218 61.8471L88.6821 61.7645L89.4401 61.6516L90.3068 61.5068L91.2955 61.3281L92.4219 61.1133L93.7048 60.8592L95.1663 60.5622L96.8334 60.2181L98.7382 59.8216L100.92 59.3665L103.424 58.8453L106.311 58.249L109.648 57.567L113.524 56.7862L118.047 55.8908L123.351 54.8618L129.607 53.6754L137.033 52.3028L135.043 53.544L128.26 55.9397L122.52 57.9377L117.634 59.6157L113.455 61.0341L109.861 62.2408L106.759 63.2736L104.07 64.1627L101.733 64.9326L99.6962 65.603L97.9168 66.1901L96.3603 66.7072L94.9978 67.1653L93.8052 67.5735L92.7624 67.9394L91.8526 68.2697L91.0616 68.5697L90.3776 68.8441L89.7908 69.0971L89.293 69.3321L88.8774 69.5524L88.5385 69.7605L88.272 69.9592L88.0743 70.1506L87.943 70.337L87.8765 70.5203L87.874 70.7026L87.9354 70.8858L88.0614 71.0718L88.2537 71.2628L88.5147 71.4608L88.8477 71.6681L89.257 71.8873L89.748 72.121L90.3274 72.3725L91.0033 72.6451L91.7854 72.9429L92.6853 73.2705L93.7169 73.6334L94.8969 74.038L96.245 74.4918L97.7851 75.0038L99.5455 75.5849L101.561 76.2481L103.872 77.0094L106.531 77.8882L109.597 78.9085L113.148 80.1L117.277 81.5L122.101 83.1553L127.767 85.1253L134.46 87.486L137.682 89.053L130.153 87.6641L123.812 86.4641L118.439 85.4234L113.859 84.5181L109.936 83.7288L106.559 83.0394L103.64 82.4368L101.106 81.91L98.9012 81.4499L96.9759 81.049L95.2912 80.7009L93.8143 80.4003L92.5181 80.143L91.38 79.9251L90.3809 79.7437L89.5049 79.5962L88.7387 79.4808L88.071 79.3958L87.4924 79.3402L86.9948 79.313L86.5718 79.3138L86.2179 79.3425L85.9286 79.3992L85.7005 79.4845L85.5307 79.5992L85.4174 79.7445L85.3593 79.9218L85.3558 80.1331L85.407 80.3809L85.5137 80.6679L85.6774 80.9976L85.9003 81.3741L86.1854 81.8022L86.5366 82.2874L86.9587 82.8366L87.4577 83.4575L88.0409 84.1595L88.7169 84.9534L89.4964 85.8524L90.3917 86.8718L91.4181 88.03L92.5934 89.3493L93.9395 90.8562L95.4824 92.583L97.2538 94.5687L99.2924 96.8615L101.645 99.5201L104.37 102.618L107.54 106.246L111.243 110.519L115.593 115.582L120.732 121.622L115.502 117.325L110.297 112.86L105.909 109.062L102.187 105.814L99.011 103.024L96.2877 100.616L93.941 98.5305L91.9098 96.7193L90.1446 95.1422L88.605 93.7667L87.2577 92.5657L86.0754 91.517L85.0353 90.6018L84.1182 89.8048L83.3085 89.1131L82.5927 88.5157L81.9595 88.0038L81.3995 87.5699L80.9045 87.2078L80.4677 86.9124L80.0834 86.6799L79.7465 86.5069L79.4529 86.3913L79.1991 86.3313L78.9821 86.3261L78.7995 86.3755L78.6493 86.4799L78.5298 86.6406L78.4399 86.8593L78.3787 87.1386L78.3455 87.4819L78.3403 87.8936L78.363 88.3789L78.4141 88.9441L78.4943 89.597L78.6048 90.3468L78.747 91.2045L78.9228 92.183L79.1347 93.2978L79.3856 94.5674L79.679 96.0138L80.0192 97.6634L80.4113 99.5479L80.8615 101.706L81.3771 104.183L81.967 107.036L82.6417 110.335L83.4141 114.164L84.2997 118.631L85.3174 123.867L86.4902 130.041L87.8468 137.364L86.9332 136.606L84.5019 129.73L82.4753 123.914L80.7742 118.967L79.337 114.735L78.1149 111.099L77.0695 107.961L76.17 105.242L75.3914 102.879L74.7137 100.819L74.1204 99.0208L73.5982 97.4477L73.1358 96.0708L72.7239 94.8654L72.3548 93.8114L72.0219 92.8915L71.7197 92.0915L71.4434 91.3994L71.1888 90.8052L70.9525 90.3005L70.7312 89.8786L70.5222 89.5338L70.3228 89.2616L70.1309 89.0586L69.9442 88.9221L69.7607 88.8505L69.5784 88.8428L69.3954 88.8991L69.2096 89.02L69.0191 89.2069L68.8218 89.4623L68.6153 89.7894L68.3972 90.1925L68.1647 90.6767L67.9148 91.2488L67.644 91.9167L67.3484 92.6899L67.0233 93.58L66.6634 94.6005L66.2624 95.768L65.8129 97.1019L65.3058 98.6257L64.7307 100.367L64.0746 102.361L63.3217 104.647L62.4531 107.276L61.4451 110.307L60.2684 113.817L58.8866 117.896L57.2537 122.66L55.3113 128.252L52.985 134.855L51.0937 139.312L52.4991 131.676L53.713 125.25L54.7655 119.806L55.6808 115.169L56.4787 111.198L57.1755 107.781L57.7846 104.828L58.3171 102.266L58.7822 100.037L59.1876 98.0909L59.5397 96.3883L59.8439 94.8959L60.1045 93.5862L60.3254 92.4362L60.5097 91.4267L60.6597 90.5415L60.7776 89.767L60.865 89.0918L60.923 88.5064L60.9524 88.0026L60.9538 87.5739L60.9273 87.2146L60.8728 86.9204L60.7898 86.6875L60.6775 86.5132L60.5348 86.3954L60.36 86.3329L60.1515 86.3251L59.9067 86.3719L59.623 86.4742L59.2968 86.6333L58.9242 86.8513L58.5004 87.1313L58.0199 87.477L57.4761 87.8933L56.8612 88.386L56.1661 88.9621L55.3799 89.6304L54.4899 90.4012L53.4808 91.2868L52.3343 92.3021L51.0288 93.4648L49.5379 94.7964L47.83 96.3226L45.8665 98.0745L43.6002 100.09L40.9731 102.416L37.9134 105.109L34.3314 108.24L30.1146 111.897L25.1205 116.191L19.1668 121.261L22.5529 116.928L27.0769 111.651L30.9234 107.203L34.2113 103.433L37.0355 100.217L39.4716 97.4608L41.5806 95.0865L43.4121 93.0322L45.0065 91.2474L46.397 89.6911L47.611 88.3296L48.6711 87.1351L49.5963 86.0843L50.4022 85.1581L51.1019 84.3404L51.7065 83.6175L52.2249 82.9781L52.6648 82.4126L53.0324 81.9127L53.3329 81.4715L53.5703 81.0832L53.7479 80.7427L53.8681 80.4458L53.9325 80.1889L53.942 79.9691L53.8969 79.7838L53.7969 79.6311L53.6408 79.5092L53.4268 79.417L53.1524 79.3535L52.8143 79.3181L52.4083 79.3106L51.9291 79.3311L51.3705 79.3799L50.7249 79.4578L49.9832 79.5658L49.1346 79.7054L48.1662 79.8785L47.0629 80.0874L45.8064 80.3351L44.375 80.6249L42.7426 80.9612L40.8781 81.349L38.7437 81.7943L36.2939 82.3044L33.4729 82.888L30.2125 83.5556L26.4288 84.3197L22.0175 85.1956L16.8481 86.202L10.7565 87.3615L3.53408 88.7022L3.06033 88.118L10.031 85.6504L15.9233 83.5948L20.9338 81.8703L25.2173 80.414L28.8971 79.1763L32.0721 78.1181L34.8219 77.2078L37.2112 76.4204L39.2932 75.7353L41.1111 75.1359L42.701 74.6084L44.0927 74.1416L45.3109 73.726L46.3763 73.3538L47.3063 73.0182L48.1154 72.7137L48.8157 72.4355L49.4174 72.1794L49.9289 71.9417L50.3572 71.7193L50.7079 71.5094L50.9858 71.3094L51.1942 71.1169L51.336 70.9299L51.4127 70.7462L51.4254 70.5639L51.3742 70.381L51.2585 70.1955L51.0769 70.0055L50.8271 69.8088L50.5058 69.6031L50.109 69.386L49.6314 69.1548L49.0666 68.9064L48.4067 68.6374L47.6423 68.3439L46.762 68.0214L45.7524 67.6645L44.5973 67.267L43.2774 66.8216L41.7697 66.3195L40.0465 65.7503L38.0744 65.1011L35.8132 64.3566L33.214 63.498L30.2169 62.5021L26.7488 61.3401L22.7189 59.9762L18.0145 58.3651L12.4943 56.4499L5.97967 54.1574L0.286527 51.9435L8.0297 53.3656L14.5437 54.5936L20.0583 55.658L24.7542 56.5834L28.774 57.39L32.2317 58.0943L35.2186 58.71L37.809 59.2483L40.063 59.7184L42.03 60.1283L43.7507 60.4845L45.2588 60.7923L46.5821 61.0562L47.7441 61.2802L48.7641 61.4673L49.6588 61.6199L50.4416 61.7403L51.1243 61.8301L51.7166 61.8904L52.2266 61.922L52.6611 61.9257L53.0257 61.9014L53.325 61.8492L53.5627 61.7685L53.7416 61.6585L53.8638 61.5182L53.9306 61.3461L53.9428 61.1404L53.9003 60.8986L53.8025 60.618L53.6481 60.2954L53.4348 59.9266L53.1598 59.5071L52.8195 59.0314L52.4091 58.4929L51.9227 57.884L51.3535 57.1956L50.6929 56.4171L49.9307 55.5359L49.0547 54.5369L48.0504 53.4021L46.9001 52.1101L45.5829 50.6351L44.0733 48.9458L42.3406 47.0042L40.3475 44.764L38.0483 42.1681L35.3868 39.1458L32.2937 35.6092L28.6823 31.4478L24.4442 26.5216L19.4419 20.6521L22.8767 23.1302L28.2284 27.7142L32.7357 31.6099L36.5554 34.9386L39.8112 37.7967L42.6011 40.2613L45.0034 42.3944L47.0812 44.2464L48.8859 45.8583L50.459 47.264L51.8349 48.4912L53.0419 49.5628L54.1033 50.4982L55.0388 51.3131L55.8647 52.0208L56.5946 52.6326L57.2403 53.1575L57.8114 53.6034L58.3163 53.9766L58.7619 54.2823L59.1542 54.5246L59.4984 54.7069L59.7986 54.8315L60.0585 54.9003L60.2812 54.9142L60.4691 54.8735L60.6244 54.7779L60.7487 54.6263L60.8432 54.417L60.909 54.1476L60.9466 53.8147L60.9563 53.4142L60.9381 52.9411L60.8915 52.389L60.816 51.7507L60.7104 51.017L60.5734 50.1773L60.403 49.2191L60.1971 48.1271L59.9526 46.8835L59.6663 45.4669L59.3339 43.8516L58.9504 42.0069L58.5099 39.8956L58.0053 37.4727L57.4279 34.6836L56.7674 31.4611L56.0115 27.7226L55.1451 23.3656L54.15 18.2621L53.0036 12.2509L51.6784 5.12747L51.9313 3.42282L54.4359 10.4893L56.5211 16.4597L58.2695 21.5342L59.7452 25.8707L60.9987 29.5947L62.07 32.8068L62.991 35.5878L63.7874 38.0038L64.48 40.1085L65.0857 41.9461L65.6184 43.553L66.0897 44.9595L66.5091 46.1907L66.8845 47.2676L67.2228 48.2079L67.5295 49.0261L67.8097 49.7347L68.0675 50.3439L68.3065 50.8623L68.53 51.297L68.7408 51.6537L68.9415 51.9372L69.1345 52.1511L69.3219 52.298L69.5057 52.3799L69.6881 52.3977L69.8709 52.3516L70.0561 52.2411L70.2456 52.0648L70.4418 51.8205L70.6466 51.5051L70.8627 51.1145L71.0927 50.6436L71.3396 50.0859L71.6068 49.4339L71.8982 48.6782L72.2183 47.8076L72.5722 46.8088L72.9662 45.666L73.4075 44.36L73.9047 42.8682L74.4682 41.1633L75.1104 39.2124L75.8467 36.9759L76.6954 34.4056L77.6794 31.4428L78.827 28.0152L80.1733 24.0339L81.7628 19.3879L83.6513 13.9387L85.9107 7.51083L88.4457 0.579771L87.0065 8.43255L85.7643 15.0352L84.6879 20.6223L83.7522 25.3777L82.9368 29.4468L82.2248 32.9456L81.6025 35.9671L81.0585 38.5867L80.5832 40.8655L80.1688 42.8538L79.8086 44.5929L79.4971 46.1168L79.2298 47.4539L79.0027 48.6279L78.8129 49.6587L78.6575 50.5627L78.5346 51.3541L78.4425 52.0444L78.3799 52.6435L78.3459 53.1598L78.3401 53.6001L78.3621 53.9701L78.4121 54.2744L78.4906 54.5169L78.5981 54.7004L78.7359 54.827L78.9054 54.8983L79.1085 54.9148L79.3473 54.8767L79.6246 54.7834L79.9438 54.6335L80.3087 54.4249L80.724 54.155L81.195 53.8201L81.7282 53.4154L82.3312 52.9354L83.0129 52.373L83.7838 51.72L84.6563 50.9664L85.6454 50.1L86.7686 49.1064L88.0472 47.9685L89.5066 46.6654L91.1775 45.1722L93.0974 43.4586L95.3119 41.4877L97.8771 39.2148L100.862 36.5845L104.354 33.5287L108.461 29.9623L113.321 25.7787L119.107 20.843L121.18 19.0862Z" fill="white"/>
<path d="M121.18 19.0862V19.0862ZM121.18 19.0862L115.971 25.2128L111.564 30.3464L107.814 34.6766L104.606 38.3514L101.848 41.4878L99.4676 44.1786L97.4058 46.4981L95.6146 48.5065L94.0547 50.2523L92.694 51.7754L91.5059 53.1086L90.4685 54.2788L89.5633 55.3086L88.7751 56.2165L88.0912 57.0183L87.5009 57.7271L86.9955 58.3542L86.5675 58.9087L86.2109 59.3988L85.9207 59.8312L85.693 60.2116L85.5247 60.5449L85.4135 60.8352L85.3579 61.086L85.357 61.3001L85.4108 61.4801L85.5197 61.6278L85.6849 61.7449L85.9083 61.8325L86.1926 61.8915L86.5412 61.9224L86.9585 61.9255L87.4499 61.9005L88.0218 61.8471L88.6821 61.7645L89.4401 61.6516L90.3068 61.5068L91.2955 61.3281L92.4219 61.1133L93.7048 60.8592L95.1663 60.5622L96.8334 60.2181L98.7382 59.8216L100.92 59.3665L103.424 58.8453L106.311 58.249L109.648 57.567L113.524 56.7862L118.047 55.8908L123.351 54.8618L129.607 53.6754L137.033 52.3028L135.043 53.544L128.26 55.9397L122.52 57.9377L117.634 59.6157L113.455 61.0341L109.861 62.2408L106.759 63.2736L104.07 64.1627L101.733 64.9326L99.6962 65.603L97.9168 66.1901L96.3603 66.7072L94.9978 67.1653L93.8052 67.5735L92.7624 67.9394L91.8526 68.2697L91.0616 68.5697L90.3776 68.8441L89.7908 69.0971L89.293 69.3321L88.8774 69.5524L88.5385 69.7605L88.272 69.9592L88.0743 70.1506L87.943 70.337L87.8765 70.5203L87.874 70.7026L87.9354 70.8858L88.0614 71.0718L88.2537 71.2628L88.5147 71.4608L88.8477 71.6681L89.257 71.8873L89.748 72.121L90.3274 72.3725L91.0033 72.6451L91.7854 72.9429L92.6853 73.2705L93.7169 73.6334L94.8969 74.038L96.245 74.4918L97.7851 75.0038L99.5455 75.5849L101.561 76.2481L103.872 77.0094L106.531 77.8882L109.597 78.9085L113.148 80.1L117.277 81.5L122.101 83.1553L127.767 85.1253L134.46 87.486L137.682 89.053L130.153 87.6641L123.812 86.4641L118.439 85.4234L113.859 84.5181L109.936 83.7288L106.559 83.0394L103.64 82.4368L101.106 81.91L98.9012 81.4499L96.9759 81.049L95.2912 80.7009L93.8143 80.4003L92.5181 80.143L91.38 79.9251L90.3809 79.7437L89.5049 79.5962L88.7387 79.4808L88.071 79.3958L87.4924 79.3402L86.9948 79.313L86.5718 79.3138L86.2179 79.3425L85.9286 79.3992L85.7005 79.4845L85.5308 79.5992L85.4174 79.7445L85.3593 79.9218L85.3558 80.1331L85.407 80.3809L85.5138 80.6679L85.6774 80.9976L85.9003 81.3741L86.1854 81.8022L86.5366 82.2874L86.9587 82.8366L87.4577 83.4575L88.0409 84.1595L88.7169 84.9534L89.4964 85.8524L90.3917 86.8717L91.4181 88.03L92.5934 89.3493L93.9395 90.8562L95.4824 92.5829L97.2538 94.5687L99.2924 96.8615L101.645 99.5201L104.37 102.618L107.54 106.246L111.243 110.519L115.593 115.582L120.732 121.622L115.502 117.325L110.297 112.86L105.909 109.062L102.187 105.814L99.011 103.024L96.2877 100.616L93.941 98.5305L91.9098 96.7193L90.1446 95.1422L88.605 93.7667L87.2578 92.5658L86.0754 91.517L85.0353 90.6018L84.1182 89.8048L83.3085 89.1131L82.5927 88.5157L81.9595 88.0038L81.3995 87.5699L80.9045 87.2078L80.4677 86.9124L80.0834 86.6799L79.7465 86.5069L79.4529 86.3913L79.1991 86.3313L78.9821 86.3261L78.7995 86.3755L78.6493 86.4799L78.5298 86.6406L78.4399 86.8593L78.3787 87.1386L78.3455 87.4819L78.3403 87.8936L78.363 88.3789L78.4141 88.9441L78.4943 89.597L78.6048 90.3468L78.747 91.2045L78.9228 92.183L79.1347 93.2978L79.3856 94.5674L79.679 96.0138L80.0192 97.6634L80.4113 99.5479L80.8615 101.706L81.3771 104.183L81.967 107.036L82.6417 110.335L83.4141 114.164L84.2997 118.631L85.3174 123.867L86.4902 130.041L87.8468 137.364L86.9332 136.606L84.5019 129.73L82.4753 123.914L80.7742 118.967L79.337 114.736L78.1149 111.099L77.0695 107.961L76.17 105.242L75.3914 102.879L74.7137 100.819L74.1204 99.0209L73.5982 97.4477L73.1358 96.0708L72.7239 94.8654L72.3548 93.8114L72.0219 92.8915L71.7197 92.0915L71.4434 91.3994L71.1888 90.8052L70.9525 90.3005L70.7312 89.8786L70.5222 89.5338L70.3228 89.2616L70.1309 89.0586L69.9442 88.9221L69.7607 88.8505L69.5784 88.8428L69.3954 88.8991L69.2096 89.02L69.0191 89.2069L68.8218 89.4623L68.6153 89.7894L68.3972 90.1925L68.1647 90.6767L67.9148 91.2488L67.644 91.9167L67.3484 92.6899L67.0233 93.58L66.6634 94.6006L66.2624 95.768L65.8129 97.1019L65.3058 98.6257L64.7307 100.367L64.0746 102.361L63.3217 104.647L62.4531 107.276L61.4451 110.307L60.2684 113.817L58.8866 117.896L57.2537 122.66L55.3113 128.252L52.985 134.855L51.0937 139.312L52.4991 131.676L53.713 125.25L54.7655 119.806L55.6807 115.169L56.4787 111.198L57.1755 107.781L57.7846 104.828L58.3171 102.266L58.7822 100.037L59.1876 98.0909L59.5397 96.3883L59.8439 94.8959L60.1045 93.5862L60.3254 92.4362L60.5097 91.4267L60.6597 90.5415L60.7776 89.767L60.865 89.0918L60.9229 88.5064L60.9524 88.0026L60.9538 87.5739L60.9273 87.2146L60.8728 86.9204L60.7898 86.6875L60.6775 86.5132L60.5348 86.3954L60.36 86.3329L60.1515 86.3251L59.9067 86.3719L59.623 86.4742L59.2968 86.6332L58.9242 86.8513L58.5004 87.1313L58.0199 87.477L57.4761 87.8933L56.8612 88.3859L56.1661 88.9621L55.3799 89.6304L54.4899 90.4012L53.4808 91.2868L52.3343 92.3021L51.0288 93.4648L49.5379 94.7964L47.83 96.3226L45.8665 98.0745L43.6002 100.09L40.9731 102.416L37.9134 105.109L34.3314 108.24L30.1146 111.897L25.1205 116.191L19.1668 121.261L22.5529 116.928L27.0769 111.651L30.9234 107.203L34.2113 103.433L37.0355 100.217L39.4716 97.4609L41.5806 95.0865L43.4121 93.0322L45.0065 91.2474L46.397 89.6911L47.611 88.3296L48.6711 87.1351L49.5963 86.0843L50.4022 85.1581L51.1019 84.3404L51.7065 83.6175L52.2249 82.9781L52.6648 82.4126L53.0324 81.9127L53.3329 81.4715L53.5703 81.0832L53.7479 80.7427L53.8681 80.4458L53.9325 80.1889L53.942 79.9691L53.897 79.7838L53.7969 79.6311L53.6408 79.5092L53.4268 79.417L53.1524 79.3535L52.8143 79.3181L52.4083 79.3106L51.9291 79.3311L51.3705 79.3799L50.7249 79.4578L49.9832 79.5658L49.1346 79.7054L48.1662 79.8785L47.0629 80.0874L45.8064 80.3351L44.375 80.6249L42.7426 80.9612L40.8781 81.349L38.7437 81.7943L36.2939 82.3044L33.4729 82.888L30.2125 83.5556L26.4288 84.3197L22.0175 85.1956L16.8481 86.202L10.7565 87.3615L3.53408 88.7022L3.06034 88.118L10.031 85.6504L15.9233 83.5948L20.9338 81.8703L25.2173 80.414L28.8971 79.1763L32.0721 78.1181L34.8219 77.2078L37.2112 76.4204L39.2932 75.7353L41.1111 75.1359L42.701 74.6084L44.0927 74.1416L45.3109 73.726L46.3763 73.3538L47.3063 73.0182L48.1154 72.7137L48.8157 72.4355L49.4174 72.1794L49.9289 71.9417L50.3572 71.7193L50.7079 71.5094L50.9858 71.3094L51.1942 71.1169L51.336 70.9299L51.4127 70.7462L51.4254 70.5639L51.3742 70.381L51.2585 70.1955L51.0769 70.0055L50.8271 69.8088L50.5058 69.6031L50.109 69.386L49.6314 69.1548L49.0666 68.9064L48.4067 68.6374L47.6423 68.3439L46.762 68.0214L45.7524 67.6645L44.5973 67.267L43.2774 66.8216L41.7697 66.3195L40.0465 65.7503L38.0744 65.1011L35.8132 64.3566L33.214 63.498L30.2169 62.5021L26.7488 61.3401L22.7189 59.9762L18.0145 58.3651L12.4943 56.4499L5.97967 54.1574L0.286528 51.9435L8.0297 53.3656L14.5437 54.5936L20.0583 55.658L24.7542 56.5834L28.774 57.39L32.2316 58.0943L35.2186 58.71L37.809 59.2483L40.063 59.7184L42.03 60.1283L43.7507 60.4845L45.2588 60.7923L46.5821 61.0562L47.7441 61.2802L48.7642 61.4673L49.6588 61.6199L50.4416 61.7403L51.1243 61.8301L51.7166 61.8904L52.2266 61.9221L52.6611 61.9257L53.0257 61.9014L53.325 61.8492L53.5627 61.7685L53.7416 61.6585L53.8638 61.5182L53.9306 61.3461L53.9428 61.1404L53.9003 60.8986L53.8025 60.618L53.6481 60.2954L53.4348 59.9266L53.1598 59.5072L52.8195 59.0314L52.4091 58.4929L51.9227 57.884L51.3535 57.1956L50.6929 56.4171L49.9307 55.5359L49.0547 54.5369L48.0504 53.4021L46.9001 52.1101L45.5829 50.6351L44.0733 48.9458L42.3406 47.0042L40.3475 44.764L38.0483 42.1681L35.3868 39.1458L32.2937 35.6092L28.6823 31.4478L24.4442 26.5216L19.4419 20.6521L22.8767 23.1302L28.2284 27.7142L32.7357 31.6099L36.5554 34.9386L39.8112 37.7967L42.6011 40.2613L45.0034 42.3944L47.0812 44.2464L48.8859 45.8583L50.459 47.264L51.8349 48.4912L53.0419 49.5628L54.1033 50.4982L55.0388 51.3131L55.8647 52.0208L56.5946 52.6326L57.2403 53.1575L57.8114 53.6034L58.3163 53.9766L58.7619 54.2823L59.1542 54.5246L59.4984 54.7069L59.7986 54.8315L60.0585 54.9003L60.2812 54.9142L60.4691 54.8735L60.6244 54.7779L60.7487 54.6263L60.8432 54.417L60.909 54.1476L60.9466 53.8147L60.9563 53.4142L60.9381 52.9411L60.8915 52.389L60.816 51.7507L60.7104 51.017L60.5734 50.1773L60.403 49.2191L60.1971 48.1271L59.9526 46.8835L59.6663 45.4669L59.3339 43.8516L58.9504 42.0069L58.5099 39.8956L58.0053 37.4727L57.4279 34.6836L56.7674 31.4611L56.0115 27.7226L55.1451 23.3656L54.15 18.2621L53.0036 12.2509L51.6784 5.12747L51.9313 3.42282L54.4359 10.4893L56.5211 16.4597L58.2695 21.5342L59.7452 25.8707L60.9987 29.5947L62.07 32.8067L62.991 35.5878L63.7874 38.0038L64.48 40.1085L65.0857 41.9461L65.6184 43.553L66.0897 44.9595L66.5091 46.1907L66.8845 47.2676L67.2228 48.2079L67.5295 49.0261L67.8097 49.7347L68.0674 50.3439L68.3065 50.8623L68.53 51.297L68.7408 51.6537L68.9415 51.9372L69.1345 52.1511L69.3219 52.298L69.5057 52.3799L69.6881 52.3977L69.8709 52.3516L70.0561 52.2411L70.2456 52.0648L70.4418 51.8205L70.6466 51.5051L70.8627 51.1145L71.0927 50.6436L71.3396 50.0859L71.6068 49.4339L71.8982 48.6782L72.2183 47.8076L72.5722 46.8088L72.9662 45.666L73.4075 44.36L73.9047 42.8682L74.4682 41.1633L75.1104 39.2124L75.8467 36.9759L76.6954 34.4056L77.6794 31.4428L78.827 28.0152L80.1733 24.0339L81.7628 19.3879L83.6513 13.9387L85.9107 7.51083L88.4457 0.579776L87.0065 8.43255L85.7643 15.0352L84.6879 20.6223L83.7522 25.3777L82.9368 29.4468L82.2248 32.9456L81.6025 35.9671L81.0585 38.5867L80.5832 40.8655L80.1688 42.8538L79.8086 44.5929L79.4971 46.1168L79.2298 47.4539L79.0027 48.6279L78.8129 49.6587L78.6575 50.5627L78.5346 51.3541L78.4425 52.0444L78.3799 52.6435L78.3459 53.1598L78.3401 53.6001L78.3621 53.9701L78.4121 54.2744L78.4906 54.5169L78.5981 54.7004L78.7359 54.827L78.9054 54.8983L79.1085 54.9148L79.3473 54.8767L79.6246 54.7834L79.9438 54.6334L80.3087 54.4249L80.724 54.155L81.195 53.8201L81.7282 53.4154L82.3312 52.9354L83.0129 52.373L83.7838 51.72L84.6563 50.9664L85.6454 50.1L86.7686 49.1064L88.0472 47.9685L89.5066 46.6654L91.1775 45.1722L93.0974 43.4586L95.3119 41.4877L97.8771 39.2148L100.862 36.5845L104.354 33.5287L108.461 29.9623L113.321 25.7787L119.107 20.843L121.18 19.0862Z" stroke="#F2817D"/>
</svg>
