<svg width="200" height="196" viewBox="0 0 200 196" fill="none" xmlns="http://www.w3.org/2000/svg">
<path fill-rule="evenodd" clip-rule="evenodd" d="M199.995 97.559L190.508 98.4641L182.752 99.2143L176.372 99.851L171.103 100.405L166.739 100.899L163.125 101.351L160.138 101.776L157.683 102.184L155.684 102.585L154.08 102.986L152.825 103.394L151.879 103.815L151.212 104.255L150.799 104.718L150.62 105.21L150.659 105.735L150.903 106.298L151.341 106.902L151.964 107.554L152.765 108.256L153.737 109.014L154.874 109.831L156.168 110.712L157.614 111.659L159.204 112.677L160.927 113.768L162.775 114.934L164.732 116.174L166.784 117.49L168.913 118.878L171.096 120.335L173.31 121.855L175.525 123.43L177.712 125.05L179.837 126.703L181.863 128.374L183.754 130.046L185.473 131.7L186.983 133.316L188.25 134.873L189.243 136.349L189.935 137.723L190.306 138.977L190.342 140.092L190.038 141.054L189.394 141.852L188.422 142.477L187.138 142.926L185.565 143.201L183.732 143.305L181.674 143.247L179.428 143.039L177.03 142.695L174.52 142.232L171.936 141.666L169.313 141.018L166.684 140.304L164.079 139.545L161.525 138.757L159.044 137.957L156.656 137.16L154.375 136.381L152.214 135.633L150.183 134.926L148.289 134.272L146.536 133.68L144.929 133.158L143.469 132.714L142.157 132.356L140.994 132.092L139.982 131.929L139.121 131.875L138.412 131.939L137.857 132.13L137.461 132.462L137.228 132.947L137.164 133.601L137.28 134.444L137.588 135.499L138.103 136.796L138.846 138.37L139.843 140.265L141.128 142.534L142.741 145.248L144.739 148.492L147.189 152.378L150.181 157.046L153.831 162.683L158.292 169.532L160.627 173.965L154.32 167.441L149.146 162.106L144.868 157.727L141.308 154.125L138.33 151.166L135.829 148.743L133.723 146.775L131.948 145.199L130.451 143.963L129.191 143.029L128.136 142.364L127.257 141.945L126.532 141.75L125.944 141.765L125.475 141.979L125.114 142.381L124.848 142.966L124.668 143.727L124.565 144.662L124.531 145.766L124.559 147.039L124.641 148.476L124.77 150.076L124.94 151.836L125.142 153.75L125.369 155.813L125.613 158.017L125.865 160.351L126.114 162.802L126.353 165.354L126.569 167.987L126.751 170.677L126.889 173.395L126.971 176.112L126.986 178.791L126.924 181.396L126.774 183.885L126.53 186.219L126.183 188.356L125.73 190.257L125.168 191.885L124.499 193.207L123.726 194.197L122.853 194.834L121.891 195.108L120.848 195.014L119.738 194.557L118.574 193.751L117.371 192.615L116.142 191.178L114.903 189.472L113.667 187.533L112.446 185.402L111.25 183.117L110.09 180.721L108.972 178.252L107.903 175.746L106.886 173.239L105.923 170.76L105.014 168.337L104.161 165.994L103.36 163.751L102.61 161.625L101.907 159.629L101.248 157.775L100.627 156.073L100.041 154.529L99.4835 153.151L98.9507 151.944L98.4366 150.913L97.9358 150.064L97.4423 149.403L96.95 148.936L96.4524 148.671L95.9425 148.621L95.4125 148.796L94.8539 149.214L94.257 149.896L93.6105 150.867L92.9012 152.159L92.1137 153.812L91.2289 155.877L90.2237 158.417L89.0696 161.512L87.7304 165.266L86.1602 169.807L84.2999 175.304L82.0721 181.979L79.3743 190.119L78.3655 190.269L79.4762 181.697L80.3725 174.664L81.0883 168.86L81.6496 164.053L82.0763 160.061L82.384 156.747L82.5846 154.002L82.687 151.74L82.6982 149.894L82.6229 148.409L82.4648 147.243L82.2259 146.359L81.9072 145.73L81.5091 145.333L81.0307 145.15L80.471 145.164L79.8281 145.365L79.0999 145.74L78.2837 146.281L77.3769 146.981L76.3768 147.831L75.2808 148.826L74.0867 149.957L72.7928 151.216L71.3981 152.596L69.9027 154.085L68.308 155.672L66.6171 157.343L64.835 159.081L62.9688 160.868L61.0282 162.683L59.0258 164.501L56.9766 166.296L54.899 168.039L52.8139 169.698L50.7447 171.243L48.7174 172.64L46.759 173.858L44.8978 174.866L43.1619 175.638L41.5785 176.149L40.1725 176.382L38.966 176.324L37.9772 175.968L37.2194 175.315L36.7008 174.373L36.4238 173.156L36.3853 171.684L36.577 169.982L36.9853 168.08L37.5928 166.01L38.3783 163.806L39.3183 161.501L40.3875 159.129L41.5601 156.723L42.8102 154.31L44.1126 151.92L45.4434 149.573L46.7805 147.292L48.1033 145.093L49.3937 142.989L50.6353 140.99L51.8139 139.106L52.9168 137.341L53.9331 135.699L54.8531 134.183L55.6683 132.792L56.3705 131.528L56.9524 130.389L57.4063 129.374L57.7246 128.482L57.8987 127.713L57.9191 127.067L57.7747 126.542L57.4524 126.142L56.9366 125.868L56.2082 125.724L55.2441 125.715L54.0157 125.85L52.4881 126.139L50.6178 126.596L48.3509 127.238L45.6196 128.088L42.3388 129.176L38.4001 130.539L33.6647 132.226L27.9529 134.299L21.0296 136.839L12.5836 139.955L15.9407 137.294L22.9859 133.026L28.7644 129.505L33.5217 126.576L37.4445 124.123L40.6765 122.053L43.3289 120.297L45.4887 118.8L47.2244 117.518L48.5902 116.416L49.629 115.466L50.375 114.644L50.8552 113.93L51.0912 113.31L51.0999 112.769L50.8949 112.296L50.4864 111.881L49.8828 111.514L49.0905 111.188L48.1147 110.894L46.9597 110.627L45.6294 110.38L44.1279 110.145L42.4596 109.918L40.6298 109.691L38.6452 109.459L36.5143 109.215L34.2479 108.953L31.8594 108.666L29.3655 108.349L26.786 107.995L24.1448 107.598L21.4693 107.155L18.7908 106.659L16.144 106.107L13.5667 105.497L11.0992 104.828L8.78311 104.1L6.66013 103.315L4.77106 102.476L3.15406 101.589L1.84328 100.661L0.867357 99.6998L0.248214 98.7154L0 97.7183L0.128445 96.7194L0.63058 95.7298L1.49488 94.7601L2.70181 93.8204L4.22474 92.9194L6.03113 92.0646L8.08393 91.2618L10.3431 90.5152L12.7669 89.8272L15.3136 89.1987L17.9425 88.6289L20.6148 88.1156L23.2949 87.6556L25.9502 87.2447L28.5521 86.8778L31.0756 86.5494L33.4996 86.2536L35.8065 85.9842L37.9819 85.735L40.0141 85.4996L41.894 85.2719L43.6144 85.0454L45.1695 84.814L46.5548 84.5714L47.766 84.3113L48.7994 84.0271L49.6507 83.712L50.315 83.3589L50.7864 82.9598L51.0573 82.5061L51.1179 81.988L50.956 81.3945L50.5556 80.7126L49.897 79.9271L48.9548 79.0199L47.6974 77.969L46.0848 76.7478L44.0667 75.3237L41.5797 73.6557L38.5431 71.6928L34.8542 69.3699L30.3806 66.6039L24.9509 63.2867L18.3403 59.2762L10.2504 54.3834L18.522 57.3547L25.8922 60.0655L31.9612 62.2774L36.9859 64.0793L41.1616 65.5396L44.6389 66.7106L47.535 67.6331L49.9417 68.3388L51.9319 68.8524L53.5635 69.1931L54.883 69.3759L55.928 69.4122L56.7287 69.3105L57.31 69.0772L57.692 68.7166L57.8915 68.2317L57.9224 67.6238L57.7961 66.8938L57.5228 66.0415L57.1112 65.066L56.5693 63.9666L55.9046 62.7421L55.1246 61.3919L54.237 59.9155L53.2504 58.3135L52.1739 56.5875L51.0182 54.7407L49.7952 52.7779L48.5187 50.7064L47.2043 48.536L45.8697 46.2791L44.5345 43.9517L43.2206 41.5726L41.9511 39.1645L40.7511 36.753L39.6461 34.3668L38.6621 32.037L37.8248 29.7968L37.1582 27.6802L36.6843 25.7212L36.422 23.9525L36.3859 22.4045L36.5864 21.1039L37.028 20.0724L37.7103 19.3263L38.6267 18.8754L39.7656 18.7224L41.1102 18.8635L42.6398 19.288L44.33 19.9791L46.1543 20.915L48.0847 22.0693L50.0932 23.4126L52.1519 24.9137L54.2346 26.5401L56.317 28.2596L58.3773 30.041L60.3965 31.8547L62.3582 33.6733L64.2493 35.4718L66.0591 37.228L67.7797 38.9222L69.4054 40.5375L70.9327 42.0591L72.3595 43.4747L73.6855 44.7735L74.9112 45.9464L76.0382 46.985L77.0686 47.8822L78.0048 48.6306L78.8495 49.2232L79.6056 49.6523L80.2754 49.9093L80.8614 49.9843L81.3654 49.8655L81.789 49.5384L82.133 48.9858L82.3974 48.1861L82.5814 47.113L82.6834 45.7338L82.7002 44.008L82.6275 41.8853L82.459 39.3025L82.1866 36.1802L81.7993 32.418L81.2828 27.8876L80.6187 22.4238L79.7832 15.8117L78.745 7.76879L78.3951 2.03795L81.2695 10.7216L83.6344 17.8275L85.6024 23.6732L87.2578 28.4987L88.6651 32.487L89.8738 35.7799L90.923 38.4873L91.8434 40.696L92.6597 42.4742L93.392 43.8763L94.057 44.9454L94.6684 45.716L95.2381 46.2158L95.7762 46.4668L96.2917 46.4866L96.7924 46.2891L97.2856 45.8857L97.7781 45.2852L98.2759 44.4951L98.7852 43.5216L99.3114 42.3702L99.8602 41.046L100.437 39.5547L101.046 37.9022L101.693 36.0957L102.381 34.144L103.116 32.0577L103.9 29.8499L104.737 27.5366L105.627 25.1368L106.573 22.6732L107.573 20.1717L108.626 17.662L109.729 15.1773L110.876 12.7535L112.061 10.4293L113.276 8.2447L114.508 6.24025L115.748 4.45581L116.982 2.92907L118.195 1.69419L119.373 0.780331L120.501 0.210405L121.567 0L122.556 0.156629L123.458 0.67935L124.264 1.55879L124.967 2.77755L125.563 4.31105L126.05 6.12857L126.43 8.1946L126.707 10.4703L126.886 12.9149L126.975 15.4873L126.984 18.1471L126.922 20.8556L126.801 23.5772L126.631 26.2791L126.424 28.9327L126.192 31.5128L125.945 33.9983L125.693 36.3714L125.446 38.618L125.212 40.7269L125.001 42.6892L124.82 44.4984L124.677 46.1496L124.58 47.6392L124.534 48.9644L124.547 50.1227L124.627 51.1118L124.782 51.9288L125.019 52.5702L125.349 53.0312L125.782 53.3057L126.331 53.3853L127.01 53.259L127.838 52.9128L128.834 52.3286L130.026 51.4832L131.443 50.3476L133.125 48.8848L135.119 47.0481L137.486 44.7781L140.302 41.9994L143.663 38.6153L147.695 34.5008L152.561 29.4931L158.478 23.3777L159.914 23.1001L155.156 30.3988L151.266 36.3919L148.079 41.3462L145.467 45.4637L143.333 48.8988L141.604 51.7711L140.219 54.1741L139.135 56.1816L138.314 57.8523L137.729 59.2332L137.357 60.3622L137.181 61.2701L137.189 61.9822L137.369 62.5189L137.714 62.8977L138.218 63.1327L138.878 63.2362L139.691 63.2186L140.656 63.0892L141.77 62.8562L143.035 62.5274L144.448 62.1103L146.008 61.6125L147.715 61.0417L149.565 60.4064L151.553 59.7155L153.673 58.9792L155.917 58.2086L158.273 57.4162L160.726 56.6156L163.259 55.8219L165.85 55.0514L168.475 54.3214L171.103 53.6502L173.703 53.0564L176.241 52.5585L178.678 52.1746L180.977 51.9216L183.1 51.8146L185.007 51.866L186.666 52.0855L188.046 52.4789L189.12 53.0482L189.869 53.7913L190.282 54.7019L190.354 55.7697L190.088 56.9811L189.497 58.3194L188.598 59.7654L187.415 61.2987L185.979 62.8981L184.322 64.5422L182.482 66.2104L180.495 67.8835L178.397 69.544L176.227 71.1762L174.017 72.7671L171.799 74.3057L169.604 75.7834L167.455 77.1938L165.376 78.5327L163.387 79.7972L161.503 80.9866L159.739 82.1011L158.105 83.1421L156.613 84.112L155.269 85.0137L154.081 85.8507L153.056 86.6269L152.2 87.3464L151.52 88.0134L151.022 88.6325L150.715 89.2079L150.61 89.7443L150.718 90.2462L151.054 90.7182L151.638 91.165L152.492 91.5917L153.645 92.0034L155.132 92.4061L157 92.8061L159.302 93.2108L162.111 93.629L165.513 94.0711L169.623 94.5502L174.584 95.0828L180.585 95.6902L187.868 96.4003L196.759 97.2508L199.995 97.559Z" fill="#5CC6FF" stroke="black" stroke-width="2"/>
</svg>
