<svg width="496" height="579" viewBox="0 0 496 579" fill="none" xmlns="http://www.w3.org/2000/svg">
<path fill-rule="evenodd" clip-rule="evenodd" d="M481.28 237.785V237.785L482.9 241.571L484.431 245.398L485.871 249.264L487.22 253.166L488.475 257.103L489.636 261.071L490.701 265.069L491.67 269.094L492.542 273.144L493.316 277.216L493.993 281.308L494.571 285.417L495.052 289.542L495.434 293.68L495.72 297.828L495.908 301.984L496 306.146L495.996 310.313L495.898 314.481L495.706 318.649L495.421 322.815L495.045 326.977L494.579 331.134L494.025 335.283L493.383 339.423L492.655 343.553L491.843 347.671L490.949 351.776L489.974 355.866L488.92 359.941L487.788 363.998L486.58 368.038L485.298 372.059L483.944 376.06L482.518 380.04L481.023 383.999L479.46 387.935L477.831 391.849L476.136 395.739L474.377 399.604L472.556 403.444L470.673 407.259L468.729 411.047L466.726 414.808L464.665 418.541L462.545 422.245L460.368 425.92L458.135 429.565L455.846 433.179L453.503 436.761L451.105 440.31L448.653 443.826L446.149 447.309L443.592 450.757L440.984 454.17L438.325 457.546L435.617 460.887L432.858 464.19L430.052 467.455L427.197 470.681L424.295 473.869L421.346 477.016L418.352 480.124L415.313 483.19L412.229 486.215L409.102 489.199L405.932 492.14L402.719 495.038L399.466 497.892L396.172 500.703L392.838 503.47L389.465 506.192L386.054 508.87L382.605 511.502L379.12 514.089L375.599 516.631L372.043 519.126L368.453 521.576L364.829 523.979L361.173 526.336L357.485 528.646L353.766 530.91L350.016 533.126L346.236 535.294L342.426 537.414L338.588 539.487L334.722 541.511L330.829 543.485L326.908 545.411L322.961 547.287L318.989 549.113L314.992 550.888L310.97 552.613L306.925 554.286L302.856 555.908L298.765 557.478L294.652 558.996L290.518 560.461L286.363 561.874L282.189 563.233L277.995 564.538L273.783 565.789L269.552 566.986L265.305 568.128L261.041 569.215L256.761 570.247L252.466 571.223L248.157 572.143L243.834 573.006L239.498 573.813L235.149 574.563L230.79 575.255L226.419 575.89L222.039 576.467L217.65 576.986L213.252 577.446L208.846 577.847L204.434 578.189L200.016 578.472L195.593 578.694L191.165 578.857L186.734 578.959L182.301 579L177.865 578.98L173.429 578.899L168.993 578.757L164.558 578.552L160.125 578.286L155.695 577.957L151.269 577.565L146.848 577.111L142.433 576.594L138.024 576.013L133.624 575.369L129.232 574.661L124.851 573.888L120.481 573.052L116.123 572.15L111.778 571.184L107.449 570.153L103.135 569.057L98.8375 567.895L94.5587 566.668L90.2992 565.375L86.0604 564.018L81.8434 562.594L77.6496 561.105L73.4802 559.551L69.3364 557.931L65.2195 556.246L61.1308 554.497L57.0714 552.682L53.0425 550.804L49.0455 548.862L45.0816 546.857L41.1517 544.788L37.2572 542.658L33.3991 540.466L29.5785 538.213L25.7962 535.9L22.0533 533.529L18.3505 531.1L14.6883 528.614L11.0675 526.074L7.48834 523.48L3.95125 520.834L0.456406 518.138L-2.99606 515.393L-6.40622 512.602L-9.7742 509.766L-13.1003 506.886L-16.3848 503.965L-19.6282 501.005L-22.8311 498.007L-25.9942 494.974L-29.1183 491.906L-32.2043 488.807L-35.2531 485.676L-38.2657 482.517L-41.2432 479.331L-44.1869 476.119L-47.0979 472.883L-49.9774 469.624L-52.8267 466.343L-55.6471 463.041L-58.4399 459.72L-61.2065 456.381L-63.948 453.023L-66.6656 449.649L-69.3607 446.258L-72.0344 442.85L-74.6876 439.427L-77.3215 435.988L-79.9369 432.533L-82.5346 429.063L-85.1152 425.576L-87.6795 422.074L-90.2277 418.554L-92.7601 415.018L-95.2768 411.464L-97.7778 407.891L-100.263 404.299L-102.731 400.686L-105.183 397.053L-107.616 393.397L-110.031 389.718L-112.425 386.015L-114.797 382.286L-117.146 378.531L-119.471 374.749L-121.768 370.938L-124.036 367.098L-126.273 363.228L-128.477 359.327L-130.646 355.394L-132.776 351.43L-134.866 347.432L-136.913 343.402L-138.914 339.338L-140.867 335.24L-142.769 331.109L-144.616 326.944L-146.407 322.746L-148.137 318.514L-149.805 314.25L-151.408 309.953L-152.942 305.625L-154.404 301.266L-155.793 296.878L-157.104 292.461L-158.335 288.016L-159.484 283.545L-160.548 279.05L-161.525 274.531L-162.411 269.991L-163.204 265.432L-163.903 260.855L-164.505 256.263L-165.009 251.658L-165.411 247.041L-165.712 242.416L-165.908 237.785L-166 233.15L-165.986 228.514L-165.865 223.879L-165.637 219.248L-165.301 214.624L-164.857 210.009L-164.305 205.406L-163.645 200.818L-162.878 196.247L-162.003 191.696L-161.023 187.168L-159.938 182.664L-158.748 178.189L-157.456 173.743L-156.062 169.33L-154.568 164.951L-152.976 160.609L-151.288 156.306L-149.505 152.044L-147.63 147.825L-145.665 143.651L-143.612 139.524L-141.473 135.445L-139.25 131.416L-136.947 127.438L-134.566 123.512L-132.108 119.641L-129.577 115.825L-126.976 112.064L-124.306 108.361L-121.57 104.716L-118.771 101.129L-115.912 97.6025L-112.994 94.1356L-110.02 90.7294L-106.993 87.3844L-103.914 84.1011L-100.787 80.8797L-97.613 77.7207L-94.3941 74.6245L-91.1325 71.5913L-87.8302 68.6214L-84.4888 65.7151L-81.1102 62.8726L-77.6959 60.0943L-74.2476 57.3804L-70.7666 54.7313L-67.2546 52.1472L-63.7129 49.6282L-60.1431 47.1747L-56.5466 44.7867L-52.9248 42.4644L-49.2793 40.2078L-45.6115 38.017L-41.9228 35.8921L-38.2146 33.8329L-34.4883 31.8394L-30.7455 29.9115L-26.9874 28.0492L-23.2156 26.2521L-19.4313 24.52L-15.6361 22.8528L-11.8312 21.25L-8.01811 19.7114L-4.19815 18.2365L-0.37265 16.8249L3.45702 15.4761L7.28951 14.1896L11.1235 12.9647L14.9578 11.8009L18.791 10.6975L22.6218 9.6537L26.4491 8.66884L30.2717 7.74209L34.0882 6.87259L37.8977 6.05945L41.6989 5.30175L45.4907 4.59854L49.2722 3.94889L53.0423 3.35189L56.8003 2.80667L60.5452 2.31238L64.2762 1.86817L67.9926 1.47326L71.6938 1.12686L75.3791 0.828214L79.0479 0.576595L82.6996 0.371297L86.3337 0.211637L89.9497 0.0969559L93.5471 0.0266156L97.1255 0L100.684 0.0165131L104.224 0.0755786L107.742 0.176638L111.241 0.319152L114.718 0.502596L118.174 0.72646L121.609 0.990249L125.021 1.29348L128.412 1.63568L131.78 2.01638L135.125 2.43514L138.448 2.89149L141.747 3.38499L145.022 3.9152L148.274 4.48167L151.501 5.08395L154.704 5.72157L157.883 6.39409L161.037 7.10102L164.166 7.84187L167.27 8.61614L170.348 9.4233L173.4 10.2628L176.427 11.1341L179.428 12.0365L182.402 12.9694L185.35 13.9322L188.271 14.9241L191.165 15.9444L194.033 16.9922L196.873 18.0668L199.687 19.1671L202.474 20.2922L205.233 21.441L207.966 22.6126L210.671 23.8058L213.35 25.0196L216.003 26.253L218.628 27.505L221.228 28.7747L223.802 30.0611L226.35 31.3635L228.873 32.6809L231.37 34.0126L233.843 35.3577L236.292 36.7156L238.716 38.0855L241.117 39.4668L243.496 40.8588L245.851 42.2609L248.184 43.6725L250.496 45.0931L252.786 46.5221L255.055 47.9591L257.305 49.4036L259.534 50.855L261.745 52.3131L263.937 53.7773L266.111 55.2473L268.268 56.7228L270.407 58.2033L272.531 59.6886L274.639 61.1783L276.732 62.6721L278.811 64.1698L280.876 65.671L282.928 67.1755L284.969 68.6829L286.998 70.1927L289.016 71.7046L291.025 73.2181L293.026 74.7325L295.02 76.2474L297.007 77.7622L298.99 79.2763L300.969 80.7893L302.946 82.3005L304.922 83.8094L306.899 85.3156L308.879 86.8186L310.862 88.3181L312.851 89.8137L314.847 91.3051L316.851 92.7922L318.866 94.2749L320.894 95.7531L322.935 97.2268L324.992 98.6964L327.066 100.162L329.159 101.624L331.273 103.083L333.409 104.539L335.568 105.994L337.752 107.448L339.963 108.901L342.202 110.356L344.469 111.813L346.766 113.273L349.094 114.739L351.454 116.211L353.846 117.691L356.271 119.18L358.729 120.682L361.22 122.196L363.745 123.726L366.304 125.274L368.895 126.841L371.52 128.431L374.176 130.044L376.863 131.683L379.58 133.35L382.325 135.049L385.098 136.781L387.896 138.547L390.718 140.352L393.562 142.196L396.425 144.083L399.305 146.013L402.199 147.99L405.106 150.015L408.021 152.09L410.942 154.216L413.866 156.396L416.79 158.631L419.711 160.923L422.624 163.272L425.528 165.681L428.417 168.149L431.289 170.678L434.14 173.268L436.966 175.921L439.764 178.636L442.53 181.415L445.261 184.256L447.951 187.16L450.599 190.127L453.201 193.156L455.751 196.247L458.249 199.399L460.689 202.612L463.069 205.884L465.385 209.214L467.635 212.602L469.815 216.045L471.922 219.543L473.954 223.093L475.909 226.694L477.782 230.345L479.574 234.042L481.28 237.785" fill="#EBF8FF"/>
</svg>
