<svg id="visual" viewBox="0 0 900 600" width="900" height="600" xmlns="http://www.w3.org/2000/svg" xmlns:xlink="http://www.w3.org/1999/xlink" version="1.1"><path d="M0 67L60 61L120 61L180 49L240 85L300 127L360 49L420 49L480 109L540 55L600 55L660 115L720 121L780 43L840 55L900 43L900 0L840 0L780 0L720 0L660 0L600 0L540 0L480 0L420 0L360 0L300 0L240 0L180 0L120 0L60 0L0 0Z" fill="#00cc8e"></path><path d="M0 223L60 187L120 157L180 283L240 217L300 289L360 295L420 337L480 343L540 169L600 217L660 265L720 307L780 367L840 163L900 247L900 41L840 53L780 41L720 119L660 113L600 53L540 53L480 107L420 47L360 47L300 125L240 83L180 47L120 59L60 59L0 65Z" fill="#00b98a"></path><path d="M0 283L60 223L120 247L180 355L240 307L300 325L360 337L420 391L480 379L540 247L600 289L660 355L720 367L780 409L840 235L900 349L900 245L840 161L780 365L720 305L660 263L600 215L540 167L480 341L420 335L360 293L300 287L240 215L180 281L120 155L60 185L0 221Z" fill="#00a784"></path><path d="M0 355L60 319L120 397L180 445L240 367L300 475L360 517L420 487L480 433L540 403L600 379L660 475L720 505L780 469L840 379L900 499L900 347L840 233L780 407L720 365L660 353L600 287L540 245L480 377L420 389L360 335L300 323L240 305L180 353L120 245L60 221L0 281Z" fill="#00957c"></path><path d="M0 601L60 601L120 601L180 601L240 601L300 601L360 601L420 601L480 601L540 601L600 601L660 601L720 601L780 601L840 601L900 601L900 497L840 377L780 467L720 503L660 473L600 377L540 401L480 431L420 485L360 515L300 473L240 365L180 443L120 395L60 317L0 353Z" fill="#038373"></path></svg>